<svg xmlns="http://www.w3.org/2000/svg" width="192" height="192" viewBox="0 0 192 192">
<g>
<path d="M 112.00 146.98 C112.00,149.80 108.50,146.49 104.50,139.89 C99.87,132.26 81.28,112.00 78.90,112.00 C78.40,112.00 78.11,111.45 78.25,110.79 C78.39,110.12 76.81,109.14 74.75,108.61 C72.69,108.08 71.00,107.25 71.00,106.76 C71.00,106.28 70.55,106.16 70.00,106.50 C69.45,106.84 69.00,106.67 69.00,106.13 C69.00,105.58 68.13,104.86 67.06,104.52 C65.65,104.07 65.21,103.17 65.45,101.20 C65.63,99.72 65.82,98.39 65.89,98.26 C65.95,98.13 69.03,99.16 72.73,100.55 C79.68,103.17 83.70,103.40 83.23,101.16 C83.04,100.25 83.87,100.02 86.11,100.37 C90.20,101.01 88.73,99.78 82.83,97.61 C77.44,95.63 74.58,93.05 77.63,92.92 C78.68,92.88 78.95,92.62 78.25,92.34 C76.37,91.58 76.75,89.01 78.75,88.92 C80.02,88.86 80.12,88.69 79.10,88.29 C78.07,87.88 78.33,87.36 80.10,86.30 C81.42,85.51 81.71,85.10 80.75,85.40 C79.79,85.70 79.00,85.56 79.00,85.09 C79.00,84.62 77.71,83.71 76.13,83.05 L 73.26 81.86 L 76.76 75.97 C79.66,71.07 80.56,70.23 82.00,71.00 C82.95,71.51 84.02,71.65 84.37,71.30 C84.72,70.95 85.00,71.17 85.00,71.78 C85.00,72.40 84.31,73.29 83.46,73.76 C82.12,74.51 82.17,74.85 83.87,76.38 C85.45,77.81 86.16,77.92 87.72,76.94 C88.77,76.28 90.05,74.82 90.57,73.69 C91.73,71.13 94.00,70.29 94.00,72.42 C94.00,73.47 94.91,74.01 96.75,74.02 C98.89,74.03 99.17,74.24 98.00,75.00 C96.73,75.82 96.78,75.97 98.31,75.98 C99.30,75.99 99.86,76.42 99.54,76.93 C99.23,77.44 99.44,78.15 100.01,78.51 C100.58,78.86 100.93,78.62 100.77,77.97 C100.61,77.27 102.04,76.61 104.25,76.36 C107.77,75.97 109.24,77.11 107.00,78.50 C106.45,78.84 106.00,80.66 106.00,82.54 C106.00,85.08 105.36,86.37 103.51,87.59 C100.81,89.36 100.95,90.99 103.75,90.54 C104.71,90.38 106.06,90.70 106.75,91.25 C107.67,91.98 108.00,91.70 108.00,90.18 C108.00,89.05 108.36,87.90 108.80,87.62 C109.24,87.35 109.60,88.76 109.60,90.75 C109.60,92.74 110.14,94.55 110.79,94.76 C111.64,95.05 111.54,95.60 110.45,96.69 C109.44,97.70 109.00,99.76 109.15,102.71 C109.33,106.06 108.95,107.45 107.69,108.15 C105.71,109.26 105.46,111.61 107.25,112.34 C108.09,112.68 107.69,113.51 106.03,114.85 C104.67,115.95 103.28,116.67 102.94,116.46 C102.60,116.25 101.34,116.77 100.14,117.61 L 97.96 119.14 L 99.98 121.97 C101.09,123.53 102.00,125.54 102.00,126.44 C102.00,128.23 105.93,136.34 109.64,142.22 C110.94,144.28 112.00,146.42 112.00,146.98 ZM 116.66 0.00 L 192.00 0.00 L 192.00 44.00 C192.00,31.61 191.75,29.00 190.56,29.00 C188.16,29.00 187.65,26.90 189.90,26.32 C191.41,25.92 192.00,24.97 192.00,22.94 C192.00,19.20 191.30,18.93 186.11,20.68 C182.47,21.91 181.58,21.94 180.88,20.83 C180.19,19.75 180.03,19.75 180.02,20.81 C180.01,21.53 179.55,21.84 179.00,21.50 C178.45,21.16 178.00,21.43 178.00,22.11 C178.00,22.78 177.70,23.03 177.33,22.67 C176.97,22.30 173.77,23.59 170.23,25.54 C165.60,28.08 163.45,28.79 162.55,28.04 C161.65,27.30 160.65,27.57 159.00,29.00 C156.44,31.22 154.46,31.55 153.45,29.92 C153.03,29.24 151.88,29.69 150.27,31.17 C147.94,33.32 147.80,33.35 148.33,31.50 C148.65,30.40 149.22,28.15 149.61,26.50 C150.00,24.85 150.98,22.48 151.78,21.23 C153.13,19.15 153.11,19.02 151.45,19.66 C150.01,20.21 149.79,19.98 150.35,18.53 C150.94,17.00 150.81,16.91 149.52,17.98 C146.51,20.48 148.07,17.58 151.25,14.77 C153.49,12.79 153.81,12.24 152.27,12.98 L 150.04 14.05 L 151.98 10.76 C154.23,6.94 155.47,-0.32 153.76,0.25 C152.34,0.72 149.92,7.51 149.58,12.00 C149.39,14.46 148.64,15.84 147.07,16.63 C145.84,17.26 144.34,18.26 143.74,18.86 C142.97,19.63 142.27,19.64 141.37,18.89 C139.99,17.74 140.82,15.54 144.15,11.50 C146.28,8.93 150.00,2.23 150.00,0.97 C150.00,0.39 144.37,0.00 136.00,0.00 C127.33,0.00 122.00,0.38 122.00,1.00 C122.00,1.55 122.56,2.01 123.25,2.02 C124.23,2.03 124.24,2.20 123.27,2.81 C122.59,3.24 121.83,5.24 121.57,7.26 C120.94,12.20 124.25,14.96 130.62,14.83 C134.33,14.76 135.31,14.31 136.54,12.12 L 138.01 9.50 L 137.36 12.50 C136.49,16.59 136.39,16.72 131.67,19.78 C126.85,22.90 117.92,23.81 115.91,21.39 C115.28,20.63 114.14,20.00 113.38,20.00 C112.62,20.00 112.00,19.30 112.00,18.44 C112.00,17.58 111.55,17.16 111.00,17.50 C109.76,18.27 109.73,16.98 110.95,15.05 C111.50,14.18 111.50,12.93 110.94,11.90 C110.29,10.67 110.59,9.52 111.98,7.84 C113.57,5.94 113.94,5.82 113.97,7.19 C114.02,9.65 115.90,10.43 116.68,8.31 C117.05,7.32 117.82,6.19 118.38,5.82 C119.06,5.36 118.94,4.26 118.03,2.57 L 116.66 0.00 ZM 192.00 141.00 L 192.00 171.59 C192.00,158.16 191.63,150.89 190.93,150.46 C190.34,150.10 189.62,150.74 189.32,151.90 C188.63,154.51 187.33,154.54 183.50,152.00 C181.85,150.91 179.46,150.01 178.19,150.01 C176.92,150.00 176.12,149.61 176.41,149.14 C177.08,148.06 170.48,145.14 166.54,144.77 C164.22,144.56 163.51,144.93 163.30,146.50 C163.16,147.60 163.28,147.97 163.58,147.32 C164.42,145.48 169.12,147.65 171.92,151.18 L 174.35 154.24 L 171.18 153.54 C167.59,152.75 162.99,155.48 163.81,157.93 C164.12,158.85 163.23,158.59 161.24,157.17 C158.46,155.19 158.16,155.15 157.55,156.73 C156.99,158.19 156.60,158.00 155.00,155.48 C153.97,153.84 153.13,152.10 153.15,151.61 C153.16,151.12 152.65,150.40 152.02,150.01 C151.39,149.62 150.75,148.52 150.61,147.57 C150.29,145.40 148.20,144.04 145.14,144.02 C143.53,144.00 142.96,143.55 143.32,142.60 C144.07,140.66 142.01,138.36 138.92,137.64 C137.50,137.31 136.33,136.36 136.33,135.52 C136.33,133.33 140.35,133.62 142.47,135.96 C143.44,137.04 145.74,138.42 147.57,139.02 C149.41,139.63 151.18,141.00 151.52,142.06 C151.86,143.13 152.67,144.06 153.32,144.13 C153.72,144.17 154.09,144.21 154.43,144.25 C156.56,144.49 157.65,144.62 158.18,144.13 C158.74,143.62 158.67,142.43 158.54,139.99 C158.51,139.61 158.49,139.21 158.47,138.77 C158.14,132.31 159.76,126.19 162.21,124.64 C163.77,123.65 170.02,125.47 169.85,126.86 C169.58,128.90 170.45,130.25 174.53,134.16 C179.85,139.27 183.13,140.89 188.25,140.95 L 192.00 141.00 ZM 0.00 0.00 L 85.91 0.00 C68.45,0.00 62.57,0.07 62.04,1.78 C61.77,2.67 62.92,3.99 64.65,5.97 C64.72,6.05 64.79,6.13 64.87,6.22 C66.44,8.02 68.67,11.34 69.81,13.60 C70.95,15.85 72.92,18.40 74.19,19.27 C75.46,20.14 78.27,22.46 80.43,24.42 C82.59,26.39 84.89,28.00 85.53,28.00 C86.17,28.00 87.63,28.79 88.77,29.75 C89.92,30.71 92.24,32.27 93.93,33.20 C97.12,34.98 97.89,37.71 95.78,39.82 C95.11,40.49 94.51,42.69 94.46,44.71 C94.34,49.68 92.68,49.88 89.52,45.31 C86.93,41.55 86.90,41.54 87.57,44.50 C87.94,46.15 89.15,48.40 90.26,49.50 C91.37,50.60 91.96,50.94 91.59,50.26 C91.13,49.44 91.41,49.22 92.42,49.61 C93.77,50.12 93.77,50.37 92.48,51.67 C90.12,54.02 89.57,57.86 91.30,59.79 C92.54,61.16 92.66,62.46 91.94,66.32 C90.71,72.88 90.33,73.24 87.53,70.44 C86.19,69.10 84.37,68.00 83.49,68.00 C82.60,68.00 82.16,67.55 82.50,67.00 C82.84,66.46 83.30,65.04 83.53,63.87 C83.75,62.69 84.74,60.81 85.72,59.69 C86.74,58.53 86.90,58.01 86.10,58.48 C85.10,59.07 84.92,58.94 85.47,58.04 C85.90,57.35 86.38,55.08 86.54,53.00 C86.77,49.82 86.28,48.69 83.43,45.93 C81.13,43.71 80.35,42.28 80.99,41.51 C82.58,39.60 81.54,32.73 79.50,31.56 C76.55,29.86 70.00,23.85 70.00,22.84 C70.00,21.21 56.77,9.02 55.71,9.68 C55.13,10.03 54.99,9.82 55.39,9.18 C55.77,8.56 55.06,6.24 53.79,4.03 L 51.50 0.02 L 0.00 0.00 ZM 0.00 129.39 L 0.00 39.72 L 2.75 39.22 C4.26,38.95 5.18,39.07 4.79,39.49 C4.40,39.91 5.08,41.13 6.29,42.20 C7.51,43.27 7.87,43.82 7.10,43.42 C6.22,42.97 5.94,43.09 6.35,43.76 C6.71,44.35 8.77,45.12 10.92,45.49 C13.06,45.85 15.61,47.01 16.57,48.07 C18.48,50.19 17.49,50.52 13.60,49.04 C9.36,47.42 9.59,49.75 13.89,51.94 C16.07,53.06 18.14,54.87 18.49,55.98 C18.85,57.09 19.55,58.00 20.07,58.00 C20.58,58.00 21.00,58.62 21.00,59.37 C21.00,60.14 19.03,61.29 16.50,62.00 C14.02,62.69 12.00,63.65 12.00,64.13 C12.00,64.61 10.99,65.01 9.75,65.03 C7.74,65.06 7.69,65.17 9.25,66.08 C10.64,66.89 10.74,67.36 9.76,68.41 C8.58,69.67 6.53,69.44 1.75,67.50 C0.09,66.82 0.00,70.16 0.00,129.39 ZM 172.49 34.57 C165.12,37.08 162.00,37.55 162.00,36.15 C162.00,33.60 170.42,29.76 179.04,28.38 L 183.08 27.73 L 181.89 30.33 C181.24,31.77 180.43,32.77 180.10,32.56 C179.76,32.35 176.34,33.26 172.49,34.57 ZM 178.90 192.00 L 70.50 192.00 C109.28,192.00 141.00,191.64 141.00,191.19 C141.00,190.75 140.34,189.51 139.53,188.44 C137.33,185.53 137.63,184.06 140.25,184.84 C143.87,185.90 150.96,190.25 150.45,191.09 C150.19,191.51 159.43,191.90 170.99,191.96 L 178.90 192.00 ZM 173.53 8.04 C174.32,9.33 174.53,9.29 178.79,7.02 C182.72,4.93 187.00,1.57 187.00,0.59 C187.00,0.27 184.50,0.00 181.45,0.00 C176.04,0.00 175.86,0.09 174.42,3.54 C173.60,5.49 173.20,7.52 173.53,8.04 ZM 64.06 92.12 C64.65,93.21 64.99,94.76 64.81,95.56 C64.57,96.70 63.91,96.53 61.77,94.76 C60.27,93.52 57.83,91.64 56.36,90.58 L 53.68 88.66 L 56.09 87.76 C57.41,87.27 59.99,86.67 61.82,86.43 C63.65,86.19 65.98,85.55 67.01,85.00 C68.03,84.45 69.24,84.02 69.68,84.04 C70.13,84.07 68.81,84.98 66.75,86.07 C62.75,88.18 62.39,88.99 64.06,92.12 ZM 192.00 59.00 L 192.00 65.00 L 189.25 64.99 C184.95,64.96 182.00,63.90 182.00,62.36 C182.00,60.75 185.95,59.00 189.57,59.00 L 192.00 59.00 ZM 89.74 88.89 C89.38,90.25 89.71,90.70 90.87,90.47 C91.77,90.30 93.51,90.12 94.75,90.08 C96.57,90.01 97.00,89.42 97.00,87.00 C97.00,83.71 95.93,83.18 94.00,85.50 C93.32,86.32 92.19,87.00 91.49,87.00 C90.80,87.00 90.01,87.85 89.74,88.89 ZM 50.32 116.44 C49.94,123.68 49.77,124.43 48.67,123.33 C47.67,122.33 48.00,118.00 49.41,113.50 C50.65,109.57 50.66,109.62 50.32,116.44 ZM 100.92 105.85 C101.66,107.23 102.62,107.65 104.15,107.25 C106.28,106.69 106.27,106.63 103.46,104.21 C100.45,101.62 99.12,102.48 100.92,105.85 ZM 99.91 16.25 C99.98,19.02 99.59,20.00 98.44,20.00 C97.58,20.00 97.18,19.52 97.55,18.92 C97.91,18.33 98.58,16.64 99.02,15.17 C99.77,12.69 99.83,12.76 99.91,16.25 ZM 84.00 8.06 C84.00,8.58 83.55,9.00 83.00,9.00 C82.45,9.00 82.00,8.30 82.00,7.44 C82.00,6.58 82.45,6.16 83.00,6.50 C83.55,6.84 84.00,7.54 84.00,8.06 ZM 147.00 153.00 C147.00,153.55 146.55,154.00 146.00,154.00 C145.45,154.00 145.00,153.55 145.00,153.00 C145.00,152.45 145.45,152.00 146.00,152.00 C146.55,152.00 147.00,152.45 147.00,153.00 Z" fill="rgb(177,60,106)"/>
<path d="M 0.00 129.39 C0.00,117.24 0.00,107.43 0.02,99.54 C0.14,101.73 0.74,101.86 3.98,102.17 C7.37,102.49 8.25,102.15 9.95,99.85 C11.36,97.94 11.59,97.03 10.72,96.74 C8.40,95.96 30.00,94.91 33.75,95.62 L 37.50 96.33 L 31.50 98.91 L 34.14 98.95 C35.60,98.98 37.05,99.69 37.37,100.52 C37.85,101.78 38.30,101.83 39.93,100.81 C41.02,100.13 42.27,99.93 42.70,100.37 C43.72,101.39 39.94,104.19 38.36,103.59 C36.80,102.98 35.94,105.29 37.06,107.09 C37.72,108.15 37.26,108.63 35.22,109.01 C33.73,109.29 32.66,109.97 32.85,110.51 C33.04,111.05 33.72,111.34 34.35,111.14 C34.98,110.94 36.85,110.65 38.50,110.50 C40.34,110.32 41.46,109.67 41.39,108.81 C41.34,108.04 42.10,107.34 43.09,107.27 C44.59,107.16 44.75,107.54 44.01,109.46 C43.53,110.75 43.39,112.06 43.71,112.37 C44.03,112.69 43.57,113.23 42.70,113.56 C41.45,114.04 41.21,115.26 41.57,119.34 C42.02,124.56 41.67,124.73 40.59,119.82 C39.98,117.07 37.04,115.39 33.69,115.88 C32.70,116.03 31.15,115.55 30.25,114.82 C29.09,113.89 28.83,113.86 29.36,114.74 C29.83,115.53 29.63,115.79 28.80,115.48 C28.09,115.20 27.40,113.61 27.29,111.95 C27.17,110.22 27.49,109.18 28.04,109.52 C28.57,109.85 29.00,109.64 29.00,109.06 C29.00,107.35 27.22,107.84 25.73,109.98 C24.84,111.24 23.55,111.80 22.15,111.53 C20.94,111.30 20.18,111.48 20.47,111.95 C20.75,112.41 20.32,113.05 19.49,113.36 C18.53,113.73 17.99,113.33 17.98,112.22 C17.97,110.77 17.82,110.73 17.04,111.97 C16.45,112.90 16.50,113.90 17.18,114.71 C17.99,115.69 17.44,116.33 14.88,117.41 C9.33,119.74 8.00,116.67 12.75,112.48 C14.69,110.78 15.04,110.05 13.94,110.03 C13.08,110.01 11.54,110.61 10.52,111.36 C8.49,112.85 5.74,112.47 2.25,110.22 C0.05,108.80 0.00,108.86 0.03,112.63 C0.05,115.58 0.76,117.20 3.03,119.42 C5.86,122.19 7.12,124.81 5.00,123.50 C4.45,123.16 4.00,123.36 4.00,123.94 C4.00,124.52 4.43,125.00 4.95,125.00 C5.47,125.00 5.21,126.64 4.38,128.63 C2.94,132.07 2.96,132.23 4.68,131.52 C5.68,131.11 7.16,130.72 7.96,130.64 C8.76,130.56 10.72,129.04 12.31,127.25 C15.39,123.79 17.28,123.25 19.39,125.22 C20.47,126.23 20.46,126.68 19.34,127.80 C18.59,128.55 18.24,129.57 18.55,130.08 C18.86,130.59 18.61,131.00 17.99,131.00 C17.33,131.00 17.52,131.66 18.43,132.57 C19.29,133.44 20.00,134.74 20.00,135.46 C20.00,137.40 22.67,138.10 23.99,136.52 C24.88,135.44 24.64,135.09 22.89,134.83 C21.66,134.65 20.45,133.87 20.20,133.11 C19.92,132.27 20.19,132.00 20.87,132.42 C21.49,132.80 22.00,132.59 22.00,131.95 C22.00,131.29 22.70,131.05 23.63,131.41 C24.52,131.75 25.87,131.52 26.63,130.89 C27.70,130.01 28.00,130.12 28.00,131.38 C28.00,132.27 28.45,133.00 29.00,133.00 L 29.03 133.00 C29.40,133.00 29.66,133.00 29.79,132.87 C30.11,132.57 29.75,131.56 28.57,128.19 L 28.53 128.09 C28.44,127.83 28.35,127.58 28.27,127.35 C27.74,125.88 27.42,125.00 27.67,124.34 C28.08,123.28 29.95,122.78 34.75,121.23 C37.77,120.25 39.27,121.10 37.00,122.50 C36.45,122.84 36.00,123.61 36.00,124.21 C36.00,124.82 36.84,124.55 37.86,123.62 C39.64,122.01 39.75,122.09 40.29,125.40 C40.87,128.96 40.25,133.00 39.13,133.00 C38.79,133.00 38.46,134.28 38.40,135.84 C38.34,137.55 38.82,138.67 39.61,138.67 C40.33,138.67 40.72,138.36 40.48,137.97 C40.25,137.59 41.69,137.41 43.68,137.57 C47.30,137.86 49.77,139.90 47.90,141.06 C47.30,141.43 47.52,142.19 48.45,142.96 C50.10,144.33 50.66,152.00 49.11,152.00 C48.62,152.00 47.96,152.65 47.66,153.45 C47.09,154.93 49.28,154.62 51.53,152.90 C52.83,151.91 54.50,153.05 54.50,154.92 C54.50,155.70 55.00,156.50 55.62,156.71 C56.81,157.10 60.00,146.00 60.00,141.49 C60.00,140.00 60.43,139.15 61.00,139.50 C61.55,139.84 62.00,139.61 62.00,139.00 C62.00,138.39 62.36,138.10 62.80,138.38 C63.24,138.65 64.18,138.50 64.91,138.06 C65.93,137.42 65.99,136.20 65.17,132.37 C64.51,129.31 64.48,127.37 65.08,127.16 C65.61,126.97 66.67,126.18 67.45,125.40 C69.34,123.52 70.02,124.78 70.71,131.46 C71.12,135.49 70.71,138.60 69.06,143.68 C67.84,147.43 66.22,152.43 65.46,154.79 C64.69,157.15 64.46,158.83 64.94,158.53 C66.62,157.50 69.00,159.24 71.16,163.06 C73.50,167.23 75.00,167.36 75.00,163.39 C75.00,161.67 75.93,160.39 78.03,159.20 C80.95,157.56 81.03,157.33 80.41,152.25 C79.87,147.82 80.02,147.00 81.38,147.00 L 81.43 147.00 C82.08,147.00 82.52,147.00 82.71,146.78 C83.12,146.29 82.26,144.72 79.47,139.65 L 79.38 139.48 C77.39,135.86 75.64,131.23 75.50,129.20 C75.35,127.16 75.13,125.39 74.99,125.25 C74.86,125.11 74.62,123.76 74.46,122.25 C74.30,120.74 73.85,118.26 73.47,116.75 C73.01,114.97 73.16,114.00 73.88,114.00 C74.50,114.00 75.91,113.09 77.02,111.98 L 78.26 110.74 C78.11,111.45 78.40,112.00 78.90,112.00 C81.04,112.00 96.25,128.34 102.68,137.20 C102.57,137.07 102.45,136.94 102.33,136.82 L 99.65 134.03 L 96.78 137.25 L 93.91 140.46 L 94.56 151.48 C94.92,157.54 95.62,162.65 96.11,162.83 C97.64,163.40 97.08,167.00 95.47,167.00 C93.31,167.00 92.62,169.47 93.82,172.92 C94.70,175.45 94.54,176.08 92.67,177.48 C91.48,178.36 91.06,178.82 91.75,178.49 C92.44,178.15 93.00,178.36 93.00,178.94 C93.00,180.20 91.98,180.28 90.20,179.15 C89.17,178.49 89.21,178.07 90.44,177.05 C91.29,176.35 91.73,175.37 91.43,174.89 C90.22,172.93 87.89,174.22 85.36,178.23 C83.89,180.55 82.02,183.12 81.21,183.93 C80.21,184.93 80.10,185.53 80.87,185.79 C81.49,186.00 82.00,187.18 82.00,188.42 C82.00,189.65 82.30,190.97 82.67,191.33 C82.98,191.65 89.42,191.85 97.92,191.94 C89.48,191.98 80.21,192.00 70.50,192.00 L 58.23 192.00 L 57.39 186.25 C56.92,183.09 56.59,178.59 56.65,176.25 C56.78,170.54 54.03,170.38 51.52,175.95 L 49.74 179.91 L 45.87 177.93 C43.74,176.85 42.00,175.58 42.00,175.12 C42.00,174.65 40.76,174.33 39.25,174.39 C36.67,174.49 36.50,174.24 36.50,170.35 C36.50,165.33 34.46,163.42 24.97,159.57 C19.28,157.25 18.38,157.12 17.40,158.47 C16.19,160.13 14.50,160.62 15.48,159.03 C15.81,158.50 14.97,157.78 13.61,157.44 C11.08,156.80 10.13,155.36 9.40,151.00 C8.49,145.59 8.00,144.33 6.77,144.29 C6.07,144.27 4.82,144.08 4.00,143.88 C3.17,143.67 2.62,144.08 2.76,144.78 C2.90,145.48 2.32,146.32 1.47,146.65 C0.14,147.16 -0.05,150.28 0.06,169.62 L 0.19 192.00 L 0.00 192.00 L 0.00 129.39 ZM 172.49 34.57 C176.34,33.26 179.76,32.35 180.10,32.56 C180.43,32.77 181.24,31.77 181.89,30.33 L 182.71 28.55 C182.70,28.64 182.66,28.74 182.59,28.85 C182.12,29.62 182.81,29.98 184.69,29.93 C187.12,29.87 187.23,29.75 185.50,29.06 C183.80,28.38 184.14,28.07 187.75,26.97 C190.60,26.11 191.59,25.58 191.89,24.26 C191.65,25.41 191.03,26.02 189.90,26.32 C187.65,26.90 188.16,29.00 190.56,29.00 C191.75,29.00 192.00,31.61 192.00,44.00 L 192.00 59.00 L 189.57 59.00 C185.95,59.00 182.00,60.75 182.00,62.36 C182.00,63.90 184.95,64.96 189.25,64.99 L 192.00 65.00 L 188.44 65.00 C186.32,65.00 185.13,65.40 185.50,66.00 C185.84,66.55 185.66,67.00 185.11,67.00 C184.55,67.00 183.60,66.21 182.99,65.25 C182.28,64.13 181.71,63.91 181.39,64.64 C181.12,65.27 180.08,65.57 179.06,65.31 C178.05,65.04 176.92,65.31 176.55,65.91 C176.18,66.51 176.39,67.00 177.00,67.00 C177.61,67.00 177.81,67.49 177.44,68.10 C177.07,68.70 178.17,70.47 179.88,72.04 C182.85,74.75 184.11,76.81 182.01,75.51 C181.44,75.16 181.28,75.56 181.62,76.45 C181.95,77.30 182.69,78.00 183.27,78.00 C183.86,78.00 184.03,78.31 183.65,78.68 C183.28,79.06 184.19,80.63 185.67,82.18 C187.16,83.73 189.19,85.00 190.19,85.00 C191.82,85.00 192.00,83.99 192.00,75.00 L 192.00 118.78 L 189.57 119.39 C188.07,119.77 186.59,119.45 185.69,118.55 C184.89,117.75 183.92,117.41 183.54,117.80 C183.15,118.18 182.42,118.56 181.92,118.62 C181.41,118.69 180.89,118.84 180.75,118.96 C180.61,119.08 179.15,119.27 177.50,119.40 C175.85,119.52 173.29,120.42 171.80,121.39 C170.32,122.37 168.74,123.24 168.30,123.33 C167.49,123.50 167.68,124.66 168.49,125.54 C166.60,124.61 163.29,123.96 162.21,124.64 C159.93,126.08 158.37,131.48 158.43,137.44 C158.22,136.58 157.92,135.53 157.54,134.27 C156.57,131.10 155.73,127.71 155.68,126.75 C155.62,125.79 155.19,125.00 154.73,125.00 C154.27,125.00 152.76,122.44 151.37,119.31 C149.48,115.02 148.63,113.97 147.94,115.06 C147.16,116.30 147.03,116.29 147.00,115.00 C146.97,113.70 146.85,113.69 146.05,114.95 C145.55,115.75 145.35,116.76 145.62,117.20 C146.54,118.69 143.25,118.01 141.96,116.45 C140.36,114.53 140.26,108.75 141.80,108.23 C142.43,108.02 143.23,106.31 143.58,104.43 C143.95,102.48 144.82,101.00 145.61,101.00 C146.38,101.00 147.00,100.30 147.00,99.44 C147.00,98.52 146.53,98.17 145.85,98.60 C145.13,99.04 144.96,98.87 145.40,98.15 C145.80,97.52 146.98,97.00 148.03,97.00 C149.61,97.00 149.85,96.49 149.37,94.12 C149.04,92.47 149.27,90.95 149.92,90.55 C150.53,90.17 150.82,89.52 150.56,89.10 C149.81,87.88 153.42,88.18 154.23,89.40 C154.73,90.15 154.97,90.08 154.98,89.19 C154.99,88.47 155.34,88.09 155.76,88.35 C156.18,88.61 156.46,87.38 156.38,85.62 C156.27,83.29 156.68,82.37 157.87,82.28 C162.86,81.91 164.92,79.46 162.10,77.25 C160.70,76.15 160.75,76.08 162.50,76.68 C163.94,77.18 163.40,76.13 160.57,72.93 C158.41,70.50 156.35,68.28 156.00,68.00 C155.64,67.72 155.06,66.71 154.71,65.75 C153.42,62.27 156.53,64.09 162.39,70.25 C166.16,74.21 169.24,76.57 170.79,76.70 C173.04,76.88 173.10,76.79 171.46,75.59 C170.35,74.78 169.92,73.65 170.33,72.59 C170.68,71.66 170.59,71.14 170.11,71.43 C169.01,72.11 161.00,66.36 161.00,64.89 C161.00,64.28 160.37,64.03 159.59,64.33 C158.82,64.62 157.36,63.93 156.34,62.79 C154.54,60.76 154.54,60.73 156.50,61.71 C157.60,62.26 159.96,62.52 161.75,62.30 C163.54,62.07 165.00,62.29 165.00,62.79 C165.00,63.28 166.57,64.53 168.50,65.57 C170.43,66.61 172.00,67.88 172.00,68.39 C172.00,68.91 172.29,69.04 172.65,68.68 C173.01,68.32 172.09,66.82 170.62,65.35 C168.59,63.32 168.25,62.46 169.22,61.85 C170.10,61.28 169.82,61.03 168.31,61.02 C167.10,61.01 165.87,60.60 165.56,60.10 C165.26,59.60 163.37,59.20 161.37,59.20 C159.38,59.20 157.36,58.59 156.89,57.85 C156.17,56.72 156.03,56.73 156.02,57.87 C156.00,58.91 155.67,58.97 154.66,58.13 C153.92,57.52 153.11,57.22 152.87,57.47 C152.62,57.71 152.35,57.03 152.27,55.95 C151.99,52.27 156.59,51.03 168.37,51.61 C175.91,51.99 179.00,51.81 179.00,51.01 C179.00,50.39 179.45,50.16 180.00,50.50 C180.55,50.84 181.00,50.58 181.00,49.92 C181.00,49.05 179.35,48.89 175.00,49.34 C171.10,49.75 169.00,49.60 169.00,48.93 C169.00,48.35 169.52,48.20 170.15,48.60 C170.89,49.05 171.04,48.87 170.57,48.11 C169.99,47.18 169.45,47.20 168.22,48.20 C167.02,49.17 166.80,49.19 167.37,48.25 C167.90,47.36 167.18,46.97 164.81,46.91 L 161.50 46.82 L 164.94 45.83 C167.63,45.06 168.06,44.63 166.94,43.85 C165.84,43.09 165.80,42.73 166.75,42.34 C167.52,42.03 167.77,40.91 167.39,39.42 C166.94,37.64 167.19,37.00 168.33,37.00 C169.18,37.00 170.13,36.60 170.43,36.11 C170.69,35.70 169.62,35.67 167.96,36.01 C169.24,35.64 170.75,35.16 172.49,34.57 ZM 11.90 45.70 C14.10,46.16 16.41,46.41 17.75,46.21 C18.99,46.02 20.00,45.23 20.00,44.47 C20.00,43.00 23.37,40.71 24.24,41.58 C25.20,42.54 32.06,38.61 31.59,37.37 C30.92,35.62 36.92,37.83 40.64,40.71 C42.21,41.92 43.89,42.91 44.38,42.89 C44.86,42.88 45.78,43.91 46.43,45.19 C47.14,46.58 48.33,47.37 49.41,47.18 C50.40,47.01 51.95,47.19 52.85,47.58 C53.76,47.98 54.95,48.44 55.50,48.60 C56.05,48.77 57.51,49.20 58.75,49.57 C60.14,49.98 61.00,49.81 61.00,49.12 C61.00,48.50 61.70,48.00 62.56,48.00 C63.42,48.00 63.88,48.38 63.60,48.84 C62.96,49.88 70.35,56.96 74.75,59.53 C76.54,60.58 77.96,62.12 77.92,62.97 C77.87,63.99 77.68,64.09 77.34,63.25 C76.74,61.77 74.00,61.56 74.00,63.00 C74.00,63.55 74.48,64.00 75.06,64.00 C75.64,64.00 75.84,64.46 75.49,65.02 C75.14,65.58 74.33,65.71 73.68,65.32 C73.00,64.91 73.07,65.32 73.86,66.30 C74.61,67.22 74.95,68.68 74.62,69.54 C74.25,70.51 74.43,70.85 75.10,70.44 C75.69,70.07 75.95,68.93 75.68,67.89 C75.41,66.85 75.54,66.00 75.98,66.00 C76.41,66.00 77.00,66.91 77.30,68.02 C77.69,69.53 76.93,70.66 74.33,72.42 C72.40,73.73 70.17,75.74 69.37,76.89 C68.04,78.79 68.07,78.92 69.70,78.37 C70.69,78.03 69.77,78.99 67.65,80.48 C64.18,82.94 62.41,83.69 59.56,83.92 C59.04,83.97 59.49,84.64 60.55,85.41 C61.31,85.97 61.87,86.27 62.54,86.32 C62.29,86.36 62.05,86.40 61.82,86.43 C59.99,86.67 57.41,87.27 56.09,87.76 L 54.65 88.30 C54.64,88.13 54.74,88.04 54.97,88.03 C56.00,88.01 55.81,87.56 54.35,86.53 C53.20,85.73 50.96,85.16 49.38,85.28 C46.77,85.48 46.53,85.23 46.80,82.66 C46.97,81.10 46.74,80.04 46.30,80.30 C45.86,80.57 44.96,80.21 44.30,79.49 C43.34,78.46 43.65,78.04 45.80,77.43 C49.79,76.30 50.37,76.33 51.82,77.73 C52.55,78.43 54.21,79.00 55.50,79.00 C56.99,79.00 58.10,79.74 58.50,81.00 C58.85,82.10 59.44,82.99 59.82,82.98 C61.10,82.94 70.00,74.28 70.00,73.08 C70.00,72.42 69.61,72.12 69.13,72.42 C68.66,72.71 68.42,71.12 68.62,68.88 C68.88,65.69 68.65,64.92 67.55,65.34 C66.19,65.86 63.57,63.77 64.46,62.87 C64.71,62.63 64.14,62.34 63.20,62.24 C55.35,61.35 54.11,60.79 53.46,57.81 C52.96,55.53 52.36,54.93 50.96,55.30 C49.03,55.81 45.51,52.83 46.66,51.67 C47.03,51.30 46.84,51.00 46.24,51.00 C45.63,51.00 45.00,52.01 44.82,53.25 C44.53,55.30 43.92,55.52 38.07,55.67 C34.54,55.76 32.20,55.50 32.87,55.08 C33.80,54.51 33.72,54.01 32.55,53.04 C31.70,52.33 30.97,50.80 30.93,49.63 C30.86,47.55 30.84,47.55 30.00,49.50 C29.18,51.41 29.14,51.40 29.07,49.25 C29.00,47.10 29.91,46.54 32.85,46.95 C33.59,47.05 33.92,46.67 33.57,46.11 C32.76,44.80 27.00,45.16 27.00,46.53 C27.00,47.09 26.32,48.53 25.49,49.71 L 23.98 51.87 L 17.47 50.06 C17.32,50.02 17.18,49.98 17.03,49.94 C17.80,49.89 17.65,49.27 16.57,48.07 C15.75,47.17 13.79,46.20 11.90,45.70 ZM 136.51 134.81 C135.98,133.15 133.44,131.24 131.43,131.46 C129.45,131.68 128.60,131.13 127.76,129.12 C127.17,127.68 126.79,126.05 126.92,125.50 C127.06,124.95 126.84,124.83 126.43,125.23 C126.03,125.64 124.69,124.88 123.45,123.55 C122.22,122.21 120.90,121.43 120.52,121.81 C120.14,122.19 119.94,122.05 120.08,121.50 C120.65,119.18 116.18,112.00 114.17,112.00 C113.55,112.00 112.36,110.66 111.51,109.02 C110.23,106.55 109.95,106.18 108.66,107.18 C109.14,106.31 109.27,104.95 109.15,102.71 C109.00,99.76 109.44,97.70 110.45,96.69 C111.54,95.60 111.64,95.05 110.79,94.76 C110.14,94.55 109.60,92.74 109.60,90.75 C109.60,89.32 109.42,88.20 109.15,87.77 C110.02,86.86 111.00,86.89 111.00,88.45 C111.00,89.34 111.72,90.34 112.59,90.67 C113.84,91.15 114.05,92.19 113.59,95.39 C113.26,97.72 113.47,100.15 114.08,101.00 C115.02,102.32 115.10,102.32 114.75,101.01 C114.37,99.62 116.13,97.00 117.43,97.00 C117.74,97.00 118.00,99.90 118.00,103.44 C118.00,109.49 119.35,112.66 120.88,110.19 C121.27,109.57 123.53,111.17 126.37,114.07 C129.02,116.78 131.63,119.00 132.16,119.00 C132.69,119.00 132.84,119.44 132.51,119.99 C132.16,120.55 132.55,120.73 133.42,120.39 C134.36,120.03 136.15,121.09 138.10,123.15 C139.84,124.99 141.00,125.73 140.68,124.78 C139.93,122.60 141.80,121.37 143.34,123.03 C144.24,124.02 144.17,124.12 143.00,123.49 C142.18,123.04 142.56,123.84 143.85,125.26 C145.14,126.68 147.62,128.40 149.35,129.09 C153.81,130.87 155.52,133.01 155.40,136.70 C155.34,138.69 155.87,140.12 156.79,140.47 C157.69,140.82 158.27,140.89 158.57,140.55 C158.68,142.62 158.69,143.66 158.18,144.13 C157.65,144.62 156.56,144.49 154.43,144.25 C154.09,144.21 153.72,144.17 153.32,144.13 C152.67,144.06 151.86,143.13 151.52,142.06 C151.18,141.00 149.41,139.63 147.57,139.02 C145.74,138.42 143.44,137.04 142.47,135.96 C140.61,133.91 137.31,133.44 136.51,134.81 ZM 138.02 16.53 C138.97,17.67 139.59,17.75 140.63,16.89 C140.71,16.83 140.78,16.76 140.86,16.69 C140.58,17.67 140.76,18.39 141.37,18.89 C141.67,19.14 141.94,19.30 142.20,19.39 C141.92,19.49 141.66,19.57 141.47,19.60 C140.91,19.69 138.74,20.91 136.66,22.32 C134.58,23.74 132.12,24.65 131.19,24.35 C129.97,23.96 129.86,24.07 130.78,24.73 C131.69,25.39 131.01,25.97 128.36,26.78 C126.33,27.40 124.34,27.71 123.94,27.46 C122.87,26.80 114.88,30.55 115.67,31.34 C116.04,31.70 115.58,32.00 114.67,32.00 C113.75,32.00 112.99,31.44 112.98,30.75 C112.98,29.98 112.69,29.88 112.23,30.50 C111.83,31.05 110.90,31.63 110.16,31.78 C109.32,31.95 109.69,30.84 111.13,28.82 L 113.44 25.58 L 110.71 27.54 C109.20,28.62 106.80,31.61 105.36,34.19 C102.47,39.38 100.00,41.12 100.00,37.97 C100.00,36.89 99.50,36.00 98.89,36.00 C98.28,36.00 98.04,36.67 98.36,37.49 C98.69,38.35 98.42,38.88 97.71,38.74 C96.31,38.46 96.04,48.06 97.34,51.75 C97.95,53.49 97.76,54.00 96.51,54.00 C95.61,54.00 95.16,54.45 95.50,55.01 C95.85,55.56 95.39,56.30 94.48,56.65 C93.16,57.15 93.10,57.45 94.17,58.12 C94.90,58.59 95.01,58.98 94.42,58.98 C93.82,58.99 93.28,59.56 93.21,60.25 C93.04,61.98 92.05,66.59 91.28,69.52 C91.48,68.68 91.69,67.62 91.94,66.32 C92.66,62.46 92.54,61.16 91.30,59.79 C89.58,57.87 90.12,54.05 92.44,51.70 C93.34,52.17 93.97,51.74 95.00,50.50 C96.04,49.25 95.90,49.00 94.16,49.00 C93.74,49.00 93.26,48.84 92.76,48.56 C93.82,48.83 94.39,47.54 94.46,44.71 C94.51,42.69 95.11,40.49 95.78,39.82 C97.89,37.71 97.12,34.98 93.93,33.20 C93.26,32.83 92.49,32.37 91.74,31.88 C93.30,32.67 94.20,32.16 97.37,28.97 C99.85,26.47 101.03,24.51 100.64,23.51 C100.24,22.46 100.87,21.56 102.52,20.81 C103.88,20.19 105.00,19.30 105.00,18.84 C105.00,18.38 106.05,18.00 107.34,18.00 C108.47,18.00 109.50,17.37 110.23,16.46 C109.83,17.53 110.10,18.06 111.00,17.50 C111.55,17.16 112.00,17.58 112.00,18.44 C112.00,19.30 112.62,20.00 113.38,20.00 C114.14,20.00 115.28,20.63 115.91,21.39 C117.92,23.81 126.85,22.90 131.67,19.78 C136.25,16.81 136.48,16.60 137.29,12.87 C137.10,14.30 137.38,15.76 138.02,16.53 ZM 132.00 99.88 C132.00,101.60 126.99,101.80 126.05,100.12 C125.55,99.23 124.81,98.72 124.40,99.00 C124.00,99.28 123.23,98.18 122.69,96.57 C121.85,94.04 122.04,93.41 124.11,91.88 C125.42,90.90 127.32,89.37 128.33,88.47 C130.05,86.94 130.14,86.98 129.81,89.17 C129.61,90.45 128.90,91.39 128.23,91.25 C126.99,91.00 126.55,92.22 127.53,93.19 C129.20,94.86 137.62,83.36 136.88,80.41 C136.55,79.09 139.21,73.82 141.25,71.76 C142.21,70.79 143.00,70.28 143.00,70.62 C143.00,70.96 143.60,70.75 144.32,70.15 C145.29,69.34 146.00,69.38 146.97,70.27 C148.02,71.24 148.15,71.24 147.59,70.25 C146.56,68.42 149.12,68.75 151.73,70.77 C154.62,73.01 155.70,78.16 153.70,80.16 C152.88,80.97 152.00,82.28 151.74,83.07 C151.47,83.86 151.41,83.28 151.60,81.78 L 151.94 79.07 L 149.60 81.10 C147.64,82.81 147.34,83.83 147.75,87.44 C148.01,89.80 147.83,91.99 147.35,92.29 C146.86,92.59 146.63,91.07 146.84,88.92 C147.13,85.87 146.85,84.97 145.61,84.88 C142.40,84.63 142.06,84.47 140.71,82.62 C139.44,80.88 139.35,80.95 139.48,83.65 C139.55,85.25 139.92,87.06 140.30,87.68 C141.16,89.06 138.60,90.13 136.25,89.37 C134.89,88.94 134.81,89.03 135.89,89.80 C137.01,90.60 136.87,91.00 135.14,91.93 C133.96,92.56 133.00,93.43 133.00,93.86 C133.00,95.17 139.36,93.88 141.29,92.18 C142.93,90.75 143.03,90.76 142.44,92.31 C142.08,93.24 142.24,94.00 142.79,94.00 C143.34,94.00 144.07,94.73 144.41,95.62 C144.89,96.88 144.56,97.12 142.96,96.70 C141.34,96.28 141.12,96.44 141.96,97.46 C143.57,99.39 139.36,100.22 137.48,98.34 C135.43,96.28 135.63,95.73 137.98,96.99 C139.60,97.86 139.85,97.77 139.35,96.48 C138.87,95.21 137.61,95.02 132.72,95.45 C129.41,95.74 126.49,96.18 126.25,96.42 C125.25,97.42 127.28,99.00 129.56,99.00 C130.90,99.00 132.00,99.40 132.00,99.88 ZM 0.04 94.20 C0.05,91.79 0.06,89.60 0.08,87.61 C0.23,91.65 0.64,91.93 1.75,91.43 C2.71,91.00 5.64,90.46 8.25,90.23 C10.86,90.00 12.75,89.40 12.44,88.90 C12.13,88.41 13.39,88.00 15.24,88.00 C17.09,88.00 19.23,87.44 20.00,86.75 C21.18,85.70 21.21,85.76 20.18,87.13 C19.11,88.55 19.39,88.83 22.22,89.27 C24.25,89.58 26.10,89.24 27.08,88.38 C27.95,87.62 29.75,87.06 31.08,87.15 C32.41,87.23 36.14,86.78 39.37,86.16 C45.15,85.04 47.00,85.25 47.00,87.02 C47.00,87.52 44.77,87.83 42.04,87.71 C38.18,87.55 36.78,87.92 35.71,89.38 C34.27,91.35 25.00,93.43 25.00,91.78 C25.00,90.54 17.97,91.25 17.91,92.50 C17.81,94.51 13.21,95.35 10.48,93.87 C9.94,93.58 7.36,93.53 4.75,93.77 ZM 57.55 146.22 C57.85,146.51 57.44,147.00 56.64,147.31 C55.60,147.71 54.89,146.61 54.07,143.37 C53.45,140.90 52.06,137.23 50.97,135.21 C48.42,130.44 48.39,128.03 50.89,128.68 C51.93,128.95 53.08,128.69 53.45,128.09 C54.93,125.69 56.59,127.27 57.87,132.25 C59.37,138.14 59.41,142.80 57.98,144.53 C57.45,145.16 57.26,145.92 57.55,146.22 ZM 139.00 70.44 C139.00,73.44 137.62,74.45 136.07,72.59 C134.93,71.21 130.89,69.72 128.00,69.61 C126.42,69.54 123.59,67.22 123.38,65.82 C123.31,65.37 123.19,64.66 123.11,64.25 C123.03,63.84 122.53,64.18 122.00,65.00 C121.24,66.17 121.03,65.89 121.02,63.75 C121.01,62.24 121.48,61.00 122.06,61.00 C122.64,61.00 122.83,60.54 122.48,59.98 C121.72,58.73 123.96,59.11 125.59,60.49 C126.23,61.04 126.53,62.05 126.27,62.74 C126.00,63.44 126.31,64.00 126.95,64.00 C127.59,64.00 127.80,64.56 127.42,65.25 C127.03,65.94 127.52,65.75 128.50,64.83 C129.94,63.47 130.67,63.37 132.39,64.33 C133.55,64.97 134.86,66.06 135.30,66.75 C135.74,67.44 136.75,68.00 137.55,68.00 C138.42,68.00 139.00,68.98 139.00,70.44 ZM 12.71 51.28 C16.27,53.17 23.23,55.59 29.25,56.79 C33.79,57.69 37.70,58.56 37.94,58.74 C38.18,58.91 37.69,59.73 36.85,60.58 C35.48,61.94 34.87,61.93 30.91,60.46 C24.03,57.89 21.00,57.52 21.00,59.26 C21.00,59.27 21.00,59.28 21.00,59.30 C20.97,58.58 20.56,58.00 20.07,58.00 C19.55,58.00 18.85,57.09 18.49,55.98 C18.14,54.87 16.07,53.06 13.89,51.94 C13.46,51.72 13.06,51.50 12.71,51.28 ZM 188.72 106.18 L 191.50 109.75 L 191.80 103.73 C192.17,96.41 191.67,94.91 189.02,95.31 C184.05,96.07 183.94,100.03 188.72,106.18 ZM 107.92 76.90 C107.50,76.40 106.19,76.15 104.25,76.36 C102.49,76.56 101.23,77.02 100.87,77.55 C101.57,75.40 104.84,70.80 107.02,69.27 C109.27,67.70 109.59,65.00 107.75,63.14 C106.75,62.12 107.09,61.97 109.50,62.36 C111.15,62.62 112.72,62.89 113.00,62.95 C113.28,63.01 112.71,63.52 111.75,64.08 C110.79,64.64 110.01,65.64 110.02,66.30 C110.02,67.03 110.41,66.92 111.00,66.00 C111.53,65.18 111.98,64.91 111.98,65.42 C111.99,65.93 111.21,67.24 110.25,68.34 C109.29,69.44 109.06,70.01 109.75,69.61 C111.97,68.31 111.08,70.15 108.50,72.18 C107.12,73.26 106.01,74.67 106.03,75.32 C106.05,75.97 106.95,75.44 108.03,74.14 C110.58,71.09 110.56,72.58 108.00,76.77 C107.97,76.81 107.95,76.86 107.92,76.90 ZM 179.86 115.57 L 182.50 117.85 L 183.09 115.68 C183.42,114.48 183.28,112.97 182.78,112.33 C182.15,111.50 182.44,111.30 183.75,111.64 C184.80,111.92 186.68,111.21 188.06,110.02 C190.13,108.22 190.17,108.09 188.32,109.15 C186.59,110.14 185.59,110.14 183.42,109.15 C181.52,108.28 180.38,108.22 179.65,108.95 C178.23,110.37 176.70,110.29 177.60,108.85 C178.05,108.12 177.87,107.96 177.11,108.43 C175.43,109.47 176.73,112.86 179.86,115.57 ZM 172.16 88.40 C174.62,90.12 176.03,89.67 175.93,87.19 C175.87,85.80 175.70,85.85 174.92,87.50 C174.25,88.93 174.14,88.19 174.53,84.90 C174.96,81.33 174.70,80.00 173.37,78.90 C171.82,77.62 171.78,77.69 172.87,79.75 C173.74,81.37 173.77,82.55 173.01,83.98 C171.99,85.88 171.89,85.89 170.15,84.15 C168.46,82.46 166.78,79.45 166.59,77.75 C166.54,77.34 166.05,77.00 165.50,77.00 C163.61,77.00 164.42,79.51 167.21,82.26 C168.74,83.78 170.00,85.44 170.00,85.95 C170.00,86.47 170.97,87.57 172.16,88.40 ZM 77.37 174.25 C77.11,176.31 77.28,178.00 77.74,178.00 C78.75,178.00 81.47,161.14 80.60,160.27 C80.27,159.94 80.00,160.18 80.00,160.80 C80.00,161.43 79.32,161.68 78.50,161.36 C77.68,161.05 77.00,161.28 77.00,161.89 C77.00,162.50 77.51,163.00 78.13,163.00 C78.90,163.00 79.03,164.21 78.55,166.75 C78.16,168.81 77.63,172.19 77.37,174.25 ZM 79.00 151.93 C79.00,153.42 76.32,153.27 75.75,151.75 C75.49,151.06 75.59,149.61 75.98,148.52 C76.67,146.59 76.71,146.60 77.84,148.71 C78.48,149.90 79.00,151.35 79.00,151.93 ZM 0.72 106.67 C1.34,108.24 1.49,108.27 1.77,106.88 C1.95,105.99 3.09,104.78 4.30,104.20 C6.35,103.21 6.27,103.13 3.25,103.07 C-0.11,103.00 -0.50,103.56 0.72,106.67 ZM 36.57 83.11 C37.32,84.33 36.82,84.18 34.69,82.56 C33.00,81.29 33.10,81.14 36.01,80.50 C39.57,79.72 41.59,80.77 38.22,81.65 C37.01,81.97 36.27,82.63 36.57,83.11 ZM 135.23 27.59 C134.38,28.85 129.74,30.23 130.50,28.99 C130.78,28.54 130.45,27.90 129.76,27.58 C129.07,27.25 129.78,27.23 131.33,27.53 C132.97,27.85 133.92,27.69 133.59,27.14 C133.27,26.63 133.68,25.95 134.51,25.64 C136.11,25.02 136.42,25.84 135.23,27.59 ZM 12.00 86.00 C8.41,87.15 6.21,87.15 5.50,86.00 C5.12,85.38 6.72,85.04 9.69,85.10 C13.59,85.18 14.03,85.35 12.00,86.00 ZM 11.30 178.34 C11.69,179.37 11.16,179.74 9.43,179.64 C8.09,179.56 7.15,179.05 7.33,178.50 C7.87,176.89 10.70,176.77 11.30,178.34 ZM 160.00 114.88 C160.00,115.43 161.31,115.34 163.10,114.66 C165.19,113.88 165.66,113.39 164.54,113.17 C162.43,112.74 160.00,113.66 160.00,114.88 ZM 130.00 61.50 C130.00,62.26 129.55,63.16 129.00,63.50 C128.43,63.85 128.00,62.99 128.00,61.50 C128.00,60.01 128.43,59.15 129.00,59.50 C129.55,59.84 130.00,60.74 130.00,61.50 ZM 27.00 147.42 C27.00,148.29 27.71,149.00 28.58,149.00 C29.45,149.00 29.99,148.47 29.77,147.81 C29.15,145.96 27.00,145.65 27.00,147.42 ZM 159.50 55.00 C162.23,56.17 163.00,56.17 163.00,55.00 C163.00,54.45 161.76,54.03 160.25,54.07 C157.81,54.13 157.73,54.24 159.50,55.00 ZM 11.00 133.00 C11.00,133.55 11.45,134.00 12.00,134.00 C12.55,134.00 13.00,133.55 13.00,133.00 C13.00,132.45 12.55,132.00 12.00,132.00 C11.45,132.00 11.00,132.45 11.00,133.00 ZM 42.00 140.06 C42.00,141.50 42.72,141.18 43.38,139.45 C43.72,138.56 43.56,138.16 42.99,138.51 C42.44,138.84 42.00,139.54 42.00,140.06 ZM 14.39 49.33 C12.48,48.95 11.01,48.83 10.54,49.05 C10.49,48.41 11.50,48.24 13.60,49.04 C13.88,49.14 14.14,49.24 14.39,49.33 ZM 105.56 85.32 C105.87,84.57 106.00,83.68 106.00,82.54 C106.00,80.66 106.45,78.84 107.00,78.50 C107.06,78.46 107.12,78.43 107.17,78.39 C106.48,79.99 106.00,81.81 106.00,83.00 C106.00,83.88 105.86,84.64 105.56,85.32 ZM 142.12 14.19 C142.39,13.49 143.09,12.45 143.90,11.56 C145.06,10.31 146.69,7.84 147.97,5.57 C146.76,7.77 145.24,10.18 144.15,11.50 C143.32,12.51 142.65,13.40 142.12,14.19 ZM 64.84 95.42 C65.27,97.34 65.09,97.31 63.42,96.00 C63.40,95.98 63.38,95.97 63.36,95.95 C64.28,96.51 64.64,96.35 64.81,95.56 C64.82,95.51 64.83,95.47 64.84,95.42 ZM 6.35 43.76 C6.24,43.58 6.18,43.44 6.17,43.34 C6.23,43.43 6.34,43.56 6.50,43.72 C7.12,44.34 8.97,45.01 11.07,45.51 C11.02,45.50 10.97,45.49 10.92,45.49 C8.77,45.12 6.71,44.35 6.35,43.76 ZM 105.07 140.81 C106.13,142.50 107.15,143.94 108.06,145.08 C106.65,143.56 105.31,141.76 105.07,140.81 ZM 72.95 108.04 C72.75,108.01 72.58,108.00 72.43,108.00 C71.65,108.00 71.00,107.52 71.00,106.94 C71.00,106.36 70.55,106.16 70.00,106.50 C70.55,106.16 71.00,106.28 71.00,106.76 C71.00,107.10 71.79,107.59 72.95,108.04 ZM 64.36 87.50 C63.23,88.37 63.10,89.09 63.48,90.32 C63.62,90.75 63.77,91.29 63.94,91.88 C62.81,89.72 62.76,88.71 64.36,87.50 ZM 94.00 50.61 C94.00,50.98 93.60,51.08 93.10,51.00 C93.61,50.39 93.55,50.12 92.90,49.81 C93.54,50.10 94.00,50.43 94.00,50.61 ZM 138.73 137.59 L 138.71 137.59 C137.17,137.23 136.14,136.58 136.42,136.13 C136.44,136.10 136.45,136.07 136.47,136.04 C136.80,136.68 137.68,137.31 138.73,137.59 ZM 169.84 126.72 C170.01,126.95 170.11,127.18 170.09,127.36 C170.04,127.66 170.01,128.23 170.00,128.69 C169.79,128.08 169.76,127.50 169.85,126.86 C169.85,126.81 169.85,126.77 169.84,126.72 ZM 173.46 133.13 C175.44,135.04 177.89,137.14 179.78,138.49 C178.18,137.46 176.49,136.04 174.53,134.16 C174.14,133.79 173.79,133.45 173.46,133.13 ZM 108.00 89.99 C108.00,90.05 108.00,90.12 108.00,90.18 C108.00,91.34 107.81,91.78 107.31,91.60 C107.55,91.43 107.79,90.91 107.98,90.06 C107.99,90.04 108.00,90.01 108.00,89.99 ZM 108.77 140.82 C106.78,137.50 104.81,133.74 103.52,130.84 C104.72,133.45 106.57,136.98 108.77,140.82 ZM 181.12 28.04 L 179.04 28.38 C177.86,28.57 176.68,28.80 175.53,29.07 C177.76,28.49 179.79,28.10 181.12,28.04 ZM 61.02 94.15 C60.82,94.00 60.64,93.87 60.51,93.77 C59.26,92.87 58.14,92.00 57.23,91.22 C58.40,92.09 59.86,93.21 61.02,94.15 ZM 106.52 91.09 C105.82,90.67 104.73,90.42 103.88,90.52 C103.92,90.51 103.96,90.51 104.00,90.50 C104.95,90.32 106.01,90.58 106.52,91.09 ZM 88.05 29.19 C87.07,28.50 86.04,28.00 85.53,28.00 C84.89,28.00 82.59,26.39 80.43,24.42 C82.59,26.39 84.92,28.00 85.61,28.00 C86.26,28.00 87.32,28.53 88.05,29.19 ZM 107.26 108.43 C106.44,109.31 106.03,110.15 106.06,110.85 C105.96,110.04 106.38,109.10 107.26,108.43 ZM 154.95 155.39 C154.93,155.35 154.90,155.31 154.87,155.27 C153.77,153.52 152.93,151.78 153.02,151.41 C153.05,151.25 152.99,151.05 152.87,150.84 C153.05,151.11 153.15,151.38 153.15,151.61 C153.13,152.09 153.94,153.78 154.95,155.39 ZM 91.01 70.51 C90.79,71.27 90.61,71.82 90.50,72.00 C90.40,72.17 90.17,72.19 89.86,72.09 C90.33,72.08 90.68,71.59 91.01,70.51 ZM 148.77 15.06 C148.42,15.72 147.95,16.21 147.40,16.50 C146.75,16.84 145.91,17.32 145.17,17.75 C145.78,17.35 146.46,16.95 147.07,16.63 C147.81,16.26 148.37,15.75 148.77,15.06 ZM 65.15 85.70 C65.37,85.62 65.61,85.52 65.86,85.41 C66.45,85.17 66.98,84.96 67.44,84.78 C67.29,84.85 67.15,84.92 67.01,85.00 C66.57,85.23 65.91,85.48 65.15,85.70 ZM 183.63 140.31 C185.09,140.68 186.86,140.94 188.25,140.95 C186.55,140.93 185.06,140.74 183.63,140.31 ZM 166.54 32.18 C165.29,32.79 164.24,33.42 163.47,34.04 C164.05,33.46 165.15,32.82 166.54,32.18 ZM 100.34 78.65 C100.24,78.63 100.13,78.58 100.01,78.51 C99.44,78.15 99.23,77.44 99.54,76.93 C99.23,77.44 99.54,78.19 100.23,78.59 C100.27,78.61 100.31,78.63 100.34,78.65 ZM 111.16 14.62 C111.37,13.86 111.38,13.07 111.15,12.35 C111.43,13.11 111.43,13.94 111.16,14.62 ZM 142.82 139.98 C142.06,138.97 140.69,138.11 138.97,137.66 C140.67,138.06 142.05,138.95 142.82,139.98 ZM 69.77 84.12 C69.87,84.25 69.09,84.80 67.37,85.74 C68.76,84.97 69.70,84.34 69.77,84.12 ZM 7.42 43.55 C7.36,43.58 7.22,43.54 7.00,43.43 C6.70,43.29 6.48,43.19 6.33,43.15 C6.48,43.15 6.74,43.24 7.10,43.42 C7.25,43.50 7.36,43.54 7.42,43.55 ZM 20.47 60.18 C19.75,60.83 18.35,61.48 16.50,62.00 C18.24,61.51 19.72,60.81 20.47,60.18 ZM 100.77 77.92 C100.77,77.94 100.77,77.95 100.77,77.97 C100.82,78.18 100.82,78.35 100.77,78.47 C100.72,78.34 100.72,78.16 100.77,77.92 ZM 88.30 46.55 C87.97,45.84 87.71,45.13 87.57,44.50 C87.38,43.68 87.25,43.08 87.21,42.74 C87.26,43.09 87.39,43.68 87.58,44.50 C87.72,45.11 87.98,45.83 88.30,46.55 ZM 110.79 11.56 C110.60,11.13 110.56,10.67 110.66,10.18 C110.57,10.66 110.61,11.11 110.79,11.56 ZM 102.03 126.73 C102.01,126.62 102.00,126.52 102.00,126.44 C102.00,126.41 102.00,126.38 102.00,126.35 C102.01,126.46 102.02,126.56 102.02,126.65 C102.02,126.68 102.02,126.71 102.03,126.73 Z" fill="rgb(64,123,167)"/>
<path d="M 112.00 146.98 C112.00,146.42 110.94,144.28 109.64,142.22 C109.35,141.76 109.06,141.29 108.77,140.82 C106.57,136.98 104.72,133.45 103.52,130.84 C102.70,129.01 102.15,127.54 102.03,126.73 C102.02,126.71 102.02,126.68 102.02,126.65 C102.02,126.56 102.01,126.46 102.00,126.35 C101.94,125.42 101.06,123.49 99.98,121.97 L 97.96 119.14 L 100.14 117.61 C101.34,116.77 102.60,116.25 102.94,116.46 C103.28,116.67 104.67,115.95 106.03,114.85 C107.69,113.51 108.09,112.68 107.25,112.34 C106.53,112.05 106.14,111.49 106.06,110.85 C106.03,110.15 106.44,109.31 107.26,108.43 C107.40,108.33 107.54,108.24 107.69,108.15 C108.11,107.92 108.43,107.61 108.66,107.18 C109.95,106.18 110.23,106.55 111.51,109.02 C112.36,110.66 113.55,112.00 114.17,112.00 C116.18,112.00 120.65,119.18 120.08,121.50 C119.94,122.05 120.14,122.19 120.52,121.81 C120.90,121.43 122.22,122.21 123.45,123.55 C124.69,124.88 126.03,125.64 126.43,125.23 C126.84,124.83 127.06,124.95 126.92,125.50 C126.79,126.05 127.17,127.68 127.76,129.12 C128.60,131.13 129.45,131.68 131.43,131.46 C133.44,131.24 135.98,133.15 136.51,134.81 C136.40,135.01 136.33,135.25 136.33,135.52 C136.33,135.69 136.38,135.87 136.47,136.04 C136.45,136.07 136.44,136.10 136.42,136.13 C136.14,136.58 137.17,137.23 138.71,137.59 L 138.73 137.59 C138.79,137.61 138.85,137.63 138.92,137.64 C140.69,138.11 142.06,138.97 142.82,139.98 C143.43,140.81 143.65,141.74 143.32,142.60 C142.96,143.55 143.53,144.00 145.14,144.02 C148.20,144.04 150.29,145.40 150.61,147.57 C150.75,148.52 151.39,149.62 152.02,150.01 C152.36,150.22 152.66,150.52 152.87,150.84 C152.99,151.05 153.05,151.25 153.02,151.41 C152.93,151.78 153.77,153.52 154.87,155.27 C154.90,155.31 154.93,155.35 154.95,155.39 C154.97,155.42 154.99,155.45 155.00,155.48 C156.60,158.00 156.99,158.19 157.55,156.73 C158.16,155.15 158.46,155.19 161.24,157.17 C163.23,158.59 164.12,158.85 163.81,157.93 C162.99,155.48 167.59,152.75 171.18,153.54 L 174.35 154.24 L 171.92 151.18 C169.12,147.65 164.42,145.48 163.58,147.32 C163.28,147.97 163.16,147.60 163.30,146.50 C163.51,144.93 164.22,144.56 166.54,144.77 C170.48,145.14 177.08,148.06 176.41,149.14 C176.12,149.61 176.92,150.00 178.19,150.01 C179.46,150.01 181.85,150.91 183.50,152.00 C187.33,154.54 188.63,154.51 189.32,151.90 C189.62,150.74 190.34,150.10 190.93,150.46 C191.63,150.89 192.00,158.16 192.00,171.59 L 192.00 192.00 L 178.90 192.00 L 170.99 191.96 C159.43,191.90 150.19,191.51 150.45,191.09 C150.96,190.25 143.87,185.90 140.25,184.84 C137.63,184.06 137.33,185.53 139.53,188.44 C140.34,189.51 141.00,190.75 141.00,191.19 C141.00,191.52 123.17,191.81 97.92,191.94 C89.42,191.85 82.98,191.65 82.67,191.33 C82.30,190.97 82.00,189.65 82.00,188.42 C82.00,187.18 81.49,186.00 80.87,185.79 C80.10,185.53 80.21,184.93 81.21,183.93 C82.02,183.12 83.89,180.55 85.36,178.23 C87.89,174.22 90.22,172.93 91.43,174.89 C91.73,175.37 91.29,176.35 90.44,177.05 C89.21,178.07 89.17,178.49 90.20,179.15 C91.98,180.28 93.00,180.20 93.00,178.94 C93.00,178.36 92.44,178.15 91.75,178.49 C91.06,178.82 91.48,178.36 92.67,177.48 C94.54,176.08 94.70,175.45 93.82,172.92 C92.62,169.47 93.31,167.00 95.47,167.00 C97.08,167.00 97.64,163.40 96.11,162.83 C95.62,162.65 94.92,157.54 94.56,151.48 L 93.91 140.46 L 96.78 137.25 L 99.65 134.03 L 102.33 136.82 C102.45,136.94 102.57,137.07 102.68,137.20 C103.41,138.20 104.03,139.11 104.50,139.89 C104.69,140.20 104.88,140.51 105.07,140.81 C105.31,141.76 106.65,143.56 108.06,145.08 C110.37,147.97 112.00,148.91 112.00,146.98 ZM 11.90 45.70 C11.62,45.63 11.34,45.56 11.07,45.51 C8.97,45.01 7.12,44.34 6.50,43.72 C6.34,43.56 6.23,43.43 6.17,43.34 C6.15,43.22 6.21,43.15 6.33,43.15 C6.48,43.19 6.70,43.29 7.00,43.43 C7.22,43.54 7.36,43.58 7.42,43.55 C7.69,43.58 7.27,43.06 6.29,42.20 C5.08,41.13 4.40,39.91 4.79,39.49 C5.18,39.07 4.26,38.95 2.75,39.22 L 0.00 39.72 L 0.00 0.00 L 51.50 0.02 L 53.79 4.03 C55.06,6.24 55.77,8.56 55.39,9.18 C54.99,9.82 55.13,10.03 55.71,9.68 C56.77,9.02 70.00,21.21 70.00,22.84 C70.00,23.85 76.55,29.86 79.50,31.56 C81.54,32.73 82.58,39.60 80.99,41.51 C80.35,42.28 81.13,43.71 83.43,45.93 C86.28,48.69 86.77,49.82 86.54,53.00 C86.38,55.08 85.90,57.35 85.47,58.04 C84.92,58.94 85.10,59.07 86.10,58.48 C86.90,58.01 86.74,58.53 85.72,59.69 C84.74,60.81 83.75,62.69 83.53,63.87 C83.30,65.04 82.84,66.46 82.50,67.00 C82.16,67.55 82.60,68.00 83.49,68.00 C84.37,68.00 86.19,69.10 87.53,70.44 C88.59,71.50 89.31,72.11 89.86,72.09 C90.17,72.19 90.40,72.17 90.50,72.00 C90.52,71.98 90.53,71.94 90.55,71.90 C90.48,72.08 90.42,72.22 90.37,72.32 C89.92,73.12 90.14,73.10 91.05,72.25 C92.68,70.74 93.76,70.67 93.97,72.00 C93.68,70.42 91.64,71.31 90.57,73.69 C90.05,74.82 88.77,76.28 87.72,76.94 C86.16,77.92 85.45,77.81 83.87,76.38 C82.17,74.85 82.12,74.51 83.46,73.76 C84.31,73.29 85.00,72.40 85.00,71.78 C85.00,71.17 84.72,70.95 84.37,71.30 C84.02,71.65 82.95,71.51 82.00,71.00 C80.56,70.23 79.66,71.07 76.76,75.97 L 73.26 81.86 L 76.13 83.05 C73.65,82.03 72.82,82.18 69.77,84.18 C69.78,84.16 69.78,84.14 69.77,84.12 C69.78,84.08 69.76,84.05 69.68,84.04 C69.30,84.02 68.35,84.34 67.44,84.78 C66.98,84.96 66.45,85.17 65.86,85.41 C65.61,85.52 65.37,85.62 65.15,85.70 C64.33,85.95 63.41,86.17 62.54,86.32 C61.87,86.27 61.31,85.97 60.55,85.41 C59.49,84.64 59.04,83.97 59.56,83.92 C62.41,83.69 64.18,82.94 67.65,80.48 C69.77,78.99 70.69,78.03 69.70,78.37 C68.07,78.92 68.04,78.79 69.37,76.89 C70.17,75.74 72.40,73.73 74.33,72.42 C76.93,70.66 77.69,69.53 77.30,68.02 C77.00,66.91 76.41,66.00 75.98,66.00 C75.54,66.00 75.41,66.85 75.68,67.89 C75.95,68.93 75.69,70.07 75.10,70.44 C74.43,70.85 74.25,70.51 74.62,69.54 C74.95,68.68 74.61,67.22 73.86,66.30 C73.07,65.32 73.00,64.91 73.68,65.32 C74.33,65.71 75.14,65.58 75.49,65.02 C75.84,64.46 75.64,64.00 75.06,64.00 C74.48,64.00 74.00,63.55 74.00,63.00 C74.00,61.56 76.74,61.77 77.34,63.25 C77.68,64.09 77.87,63.99 77.92,62.97 C77.96,62.12 76.54,60.58 74.75,59.53 C70.35,56.96 62.96,49.88 63.60,48.84 C63.88,48.38 63.42,48.00 62.56,48.00 C61.70,48.00 61.00,48.50 61.00,49.12 C61.00,49.81 60.14,49.98 58.75,49.57 C57.51,49.20 56.05,48.77 55.50,48.60 C54.95,48.44 53.76,47.98 52.85,47.58 C51.95,47.19 50.40,47.01 49.41,47.18 C48.33,47.37 47.14,46.58 46.43,45.19 C45.78,43.91 44.86,42.88 44.38,42.89 C43.89,42.91 42.21,41.92 40.64,40.71 C36.92,37.83 30.92,35.62 31.59,37.37 C32.06,38.61 25.20,42.54 24.24,41.58 C23.37,40.71 20.00,43.00 20.00,44.47 C20.00,45.23 18.99,46.02 17.75,46.21 C16.41,46.41 14.10,46.16 11.90,45.70 ZM 58.23 192.00 L 0.19 192.00 L 0.06 169.62 C-0.05,150.28 0.14,147.16 1.47,146.65 C2.32,146.32 2.90,145.48 2.76,144.78 C2.62,144.08 3.17,143.67 4.00,143.88 C4.82,144.08 6.07,144.27 6.77,144.29 C8.00,144.33 8.49,145.59 9.40,151.00 C10.13,155.36 11.08,156.80 13.61,157.44 C14.97,157.78 15.81,158.50 15.48,159.03 C14.50,160.62 16.19,160.13 17.40,158.47 C18.38,157.12 19.28,157.25 24.97,159.57 C34.46,163.42 36.50,165.33 36.50,170.35 C36.50,174.24 36.67,174.49 39.25,174.39 C40.76,174.33 42.00,174.65 42.00,175.12 C42.00,175.58 43.74,176.85 45.87,177.93 L 49.74 179.91 L 51.52 175.95 C54.03,170.38 56.78,170.54 56.65,176.25 C56.59,178.59 56.92,183.09 57.39,186.25 ZM 88.05 29.19 C87.32,28.53 86.26,28.00 85.61,28.00 C84.92,28.00 82.59,26.39 80.43,24.42 C78.27,22.46 75.46,20.14 74.19,19.27 C72.92,18.40 70.95,15.85 69.81,13.60 C68.67,11.34 66.44,8.02 64.87,6.22 C64.79,6.13 64.72,6.05 64.65,5.97 C62.92,3.99 61.77,2.67 62.04,1.78 C62.57,0.07 68.45,0.00 85.91,0.00 L 116.66 0.00 L 118.03 2.57 C118.94,4.26 119.06,5.36 118.38,5.82 C117.82,6.19 117.05,7.32 116.68,8.31 C115.90,10.43 114.02,9.65 113.97,7.19 C113.94,5.82 113.57,5.94 111.98,7.84 C111.23,8.74 110.80,9.49 110.66,10.18 C110.56,10.67 110.60,11.13 110.79,11.56 C110.83,11.67 110.88,11.78 110.94,11.90 C111.02,12.04 111.09,12.20 111.15,12.35 C111.38,13.07 111.37,13.86 111.16,14.62 C111.10,14.77 111.03,14.92 110.95,15.05 C110.61,15.58 110.37,16.06 110.23,16.46 C109.50,17.37 108.47,18.00 107.34,18.00 C106.05,18.00 105.00,18.38 105.00,18.84 C105.00,19.30 103.88,20.19 102.52,20.81 C100.87,21.56 100.24,22.46 100.64,23.51 C101.03,24.51 99.85,26.47 97.37,28.97 C94.20,32.16 93.30,32.67 91.74,31.88 C90.58,31.13 89.46,30.33 88.77,29.75 C88.54,29.56 88.30,29.37 88.05,29.19 ZM 50.32 116.44 C50.61,110.66 50.65,109.74 49.90,111.98 L 51.19 107.54 L 47.41 104.37 C43.97,101.48 43.50,101.30 41.50,102.59 C42.52,101.84 43.21,100.88 42.70,100.37 C42.27,99.93 41.02,100.13 39.93,100.81 C38.30,101.83 37.85,101.78 37.37,100.52 C37.22,100.13 36.82,99.76 36.28,99.48 C38.94,100.06 39.00,99.92 39.00,99.06 C39.00,97.48 37.28,96.93 34.49,97.63 L 37.50 96.33 L 33.75 95.62 C30.00,94.91 8.40,95.96 10.72,96.74 C10.90,96.80 11.03,96.88 11.12,97.00 L 6.03 97.00 C1.05,97.00 0.17,97.09 0.03,98.64 C0.03,97.08 0.04,95.60 0.04,94.20 L 4.75 93.77 C7.36,93.53 9.94,93.58 10.48,93.87 C13.21,95.35 17.81,94.51 17.91,92.50 C17.97,91.25 25.00,90.54 25.00,91.78 C25.00,93.43 34.27,91.35 35.71,89.38 C36.78,87.92 38.18,87.55 42.04,87.71 C44.77,87.83 47.00,87.52 47.00,87.02 C47.00,85.25 45.15,85.04 39.37,86.16 C39.06,86.22 38.76,86.28 38.45,86.33 C42.15,85.59 45.69,84.51 46.18,83.75 C46.50,83.24 46.72,82.66 46.85,82.11 C46.84,82.28 46.82,82.47 46.80,82.66 C46.53,85.23 46.77,85.48 49.38,85.28 C50.96,85.16 53.20,85.73 54.35,86.53 C55.81,87.56 56.00,88.01 54.97,88.03 C54.74,88.04 54.64,88.13 54.65,88.30 L 53.68 88.66 L 56.36 90.58 C56.62,90.77 56.91,90.98 57.23,91.22 C58.14,92.00 59.26,92.87 60.51,93.77 C60.64,93.87 60.82,94.00 61.02,94.15 C61.29,94.36 61.54,94.57 61.77,94.76 C62.43,95.31 62.95,95.70 63.36,95.95 C63.38,95.97 63.40,95.98 63.42,96.00 C64.42,96.79 64.88,97.11 65.00,96.83 C65.04,98.09 65.36,98.90 65.75,98.66 C65.76,98.65 65.78,98.65 65.80,98.64 C65.71,99.16 65.58,100.14 65.45,101.20 C65.28,102.61 65.46,103.47 66.08,104.01 C65.25,104.44 67.43,118.51 69.30,124.89 C68.84,124.37 68.26,124.60 67.45,125.40 C66.67,126.18 65.61,126.97 65.08,127.16 C64.48,127.37 64.51,129.31 65.17,132.37 C65.99,136.20 65.93,137.42 64.91,138.06 C64.18,138.50 63.24,138.65 62.80,138.38 C62.36,138.10 62.00,138.39 62.00,139.00 C62.00,139.61 61.55,139.84 61.00,139.50 C60.43,139.15 60.00,140.00 60.00,141.49 C60.00,143.76 59.19,147.71 58.23,151.02 C59.21,147.09 60.01,142.39 59.72,140.85 C59.30,138.67 59.26,138.69 59.14,141.19 C59.06,142.66 58.55,144.14 58.00,144.50 C59.41,142.75 59.36,138.11 57.87,132.25 C56.59,127.27 54.93,125.69 53.45,128.09 C53.08,128.69 51.93,128.95 50.89,128.68 C50.08,128.47 49.54,128.58 49.26,128.98 C49.10,128.08 48.96,127.16 48.84,126.26 C48.70,125.10 48.59,124.08 48.52,123.14 C48.56,123.21 48.61,123.28 48.67,123.33 C49.77,124.43 49.94,123.68 50.32,116.44 ZM 173.46 133.13 C171.40,131.09 170.39,129.83 170.00,128.69 C170.01,128.23 170.04,127.66 170.09,127.36 C170.11,127.18 170.01,126.95 169.84,126.72 C169.78,126.33 169.25,125.91 168.49,125.54 C167.68,124.66 167.49,123.50 168.30,123.33 C168.74,123.24 170.32,122.37 171.80,121.39 C173.29,120.42 175.85,119.52 177.50,119.40 C179.15,119.27 180.61,119.08 180.75,118.96 C180.89,118.84 181.41,118.69 181.92,118.62 C182.42,118.56 183.15,118.18 183.54,117.80 C183.92,117.41 184.89,117.75 185.69,118.55 C186.59,119.45 188.07,119.77 189.57,119.39 L 192.00 118.78 L 192.00 141.00 L 188.25 140.95 C186.86,140.94 185.09,140.68 183.63,140.31 C182.33,139.92 181.08,139.33 179.78,138.49 C177.89,137.14 175.44,135.04 173.46,133.13 ZM 138.02 16.53 C137.38,15.76 137.10,14.30 137.29,12.87 C137.31,12.75 137.34,12.63 137.36,12.50 L 138.01 9.50 L 136.54 12.12 C135.31,14.31 134.33,14.76 130.62,14.83 C124.25,14.96 120.94,12.20 121.57,7.26 C121.83,5.24 122.59,3.24 123.27,2.81 C124.24,2.20 124.23,2.03 123.25,2.02 C122.56,2.01 122.00,1.55 122.00,1.00 C122.00,0.38 127.33,0.00 136.00,0.00 C144.37,0.00 150.00,0.39 150.00,0.97 C150.00,1.58 149.12,3.48 147.97,5.57 C146.69,7.84 145.06,10.31 143.90,11.56 C143.09,12.45 142.39,13.49 142.12,14.19 C141.47,15.17 141.05,16.00 140.86,16.69 C140.78,16.76 140.71,16.83 140.63,16.89 C139.59,17.75 138.97,17.67 138.02,16.53 ZM 192.00 65.00 L 192.00 75.00 C192.00,83.99 191.82,85.00 190.19,85.00 C189.19,85.00 187.16,83.73 185.67,82.18 C184.19,80.63 183.28,79.06 183.65,78.68 C184.03,78.31 183.86,78.00 183.27,78.00 C182.69,78.00 181.95,77.30 181.62,76.45 C181.28,75.56 181.44,75.16 182.01,75.51 C184.11,76.81 182.85,74.75 179.88,72.04 C178.17,70.47 177.07,68.70 177.44,68.10 C177.81,67.49 177.61,67.00 177.00,67.00 C176.39,67.00 176.18,66.51 176.55,65.91 C176.92,65.31 178.05,65.04 179.06,65.31 C180.08,65.57 181.12,65.27 181.39,64.64 C181.71,63.91 182.28,64.13 182.99,65.25 C183.60,66.21 184.55,67.00 185.11,67.00 C185.66,67.00 185.84,66.55 185.50,66.00 C185.13,65.40 186.32,65.00 188.44,65.00 ZM 154.89 89.19 C154.94,88.62 155.19,88.27 155.50,88.27 C155.21,88.27 154.99,88.63 154.98,89.19 C154.97,90.08 154.73,90.15 154.23,89.40 C153.42,88.18 149.81,87.88 150.56,89.10 C150.82,89.52 150.53,90.17 149.92,90.55 C149.27,90.95 149.04,92.47 149.37,94.12 C149.85,96.49 149.61,97.00 148.03,97.00 C147.13,97.00 146.14,97.38 145.62,97.89 C145.09,97.45 144.43,97.09 143.68,96.89 C141.54,96.32 141.12,96.39 141.83,97.30 C141.15,96.43 141.43,96.30 142.96,96.70 C144.56,97.12 144.89,96.88 144.41,95.62 C144.07,94.73 143.34,94.00 142.79,94.00 C142.24,94.00 142.08,93.24 142.44,92.31 C143.03,90.76 142.93,90.75 141.29,92.18 C140.94,92.49 140.45,92.78 139.87,93.05 C140.42,92.64 140.70,92.11 140.80,91.40 C140.99,90.04 140.73,89.54 139.33,89.39 C140.25,89.05 140.75,88.41 140.30,87.68 C139.92,87.06 139.55,85.25 139.48,83.65 C139.35,80.95 139.44,80.88 140.71,82.62 C142.06,84.47 142.40,84.63 145.61,84.88 C146.85,84.97 147.13,85.87 146.84,88.92 C146.63,91.07 146.86,92.59 147.35,92.29 C147.83,91.99 148.01,89.80 147.75,87.44 C147.34,83.83 147.64,82.81 149.60,81.10 L 151.94 79.07 L 151.60 81.78 C151.41,83.28 151.47,83.86 151.74,83.07 C152.00,82.28 152.88,80.97 153.70,80.16 C154.12,79.74 154.40,79.18 154.56,78.55 C154.46,79.00 154.31,79.43 154.10,79.82 C153.44,81.05 153.38,83.35 153.92,86.13 C154.39,88.53 154.83,89.91 154.89,89.19 ZM 173.53 8.04 C173.20,7.52 173.60,5.49 174.42,3.54 C175.86,0.09 176.04,0.00 181.45,0.00 C184.50,0.00 187.00,0.27 187.00,0.59 C187.00,1.57 182.72,4.93 178.79,7.02 C174.53,9.29 174.32,9.33 173.53,8.04 ZM 188.72 106.18 C183.94,100.03 184.05,96.07 189.02,95.31 C191.67,94.91 192.17,96.41 191.80,103.73 L 191.50 109.75 ZM 179.86 115.57 C176.73,112.86 175.43,109.47 177.11,108.43 C177.87,107.96 178.05,108.12 177.60,108.85 C176.70,110.29 178.23,110.37 179.65,108.95 C180.38,108.22 181.52,108.28 183.42,109.15 C185.59,110.14 186.59,110.14 188.32,109.15 C190.17,108.09 190.13,108.22 188.06,110.02 C186.68,111.21 184.80,111.92 183.75,111.64 C182.44,111.30 182.15,111.50 182.78,112.33 C183.28,112.97 183.42,114.48 183.09,115.68 L 182.50 117.85 ZM 148.77 15.06 C149.22,14.29 149.48,13.29 149.58,12.00 C149.92,7.51 152.34,0.72 153.76,0.25 C155.47,-0.32 154.23,6.94 151.98,10.76 L 150.04 14.05 L 152.11 13.05 C151.02,13.64 149.69,14.66 149.05,15.45 C148.34,16.30 147.23,17.00 146.58,17.00 C146.55,17.00 146.51,17.00 146.48,17.00 C146.81,16.82 147.12,16.65 147.40,16.50 C147.95,16.21 148.42,15.72 148.77,15.06 ZM 89.74 88.89 C90.01,87.85 90.80,87.00 91.49,87.00 C92.19,87.00 93.32,86.32 94.00,85.50 C95.93,83.18 97.00,83.71 97.00,87.00 C97.00,89.42 96.57,90.01 94.75,90.08 C93.51,90.12 91.77,90.30 90.87,90.47 C89.71,90.70 89.38,90.25 89.74,88.89 ZM 100.92 105.85 C99.12,102.48 100.45,101.62 103.46,104.21 C106.27,106.63 106.28,106.69 104.15,107.25 C102.62,107.65 101.66,107.23 100.92,105.85 ZM 99.91 16.25 C99.83,12.76 99.77,12.69 99.02,15.17 C98.58,16.64 97.91,18.33 97.55,18.92 C97.18,19.52 97.58,20.00 98.44,20.00 C99.59,20.00 99.98,19.02 99.91,16.25 ZM 11.30 178.34 C10.70,176.77 7.87,176.89 7.33,178.50 C7.15,179.05 8.09,179.56 9.43,179.64 C11.16,179.74 11.69,179.37 11.30,178.34 ZM 84.00 8.06 C84.00,7.54 83.55,6.84 83.00,6.50 C82.45,6.16 82.00,6.58 82.00,7.44 C82.00,8.30 82.45,9.00 83.00,9.00 C83.55,9.00 84.00,8.58 84.00,8.06 ZM 147.00 153.00 C147.00,152.45 146.55,152.00 146.00,152.00 C145.45,152.00 145.00,152.45 145.00,153.00 C145.00,153.55 145.45,154.00 146.00,154.00 C146.55,154.00 147.00,153.55 147.00,153.00 ZM 0.16 184.00 C0.16,185.38 0.38,185.94 0.66,185.25 C0.94,184.56 0.94,183.44 0.66,182.75 C0.38,182.06 0.16,182.62 0.16,184.00 ZM 54.40 154.16 C54.04,152.79 52.69,152.08 51.59,152.86 C51.92,152.45 52.76,152.35 53.53,152.65 C54.33,152.96 54.74,153.61 54.44,154.10 C54.42,154.12 54.41,154.14 54.40,154.16 ZM 156.44 140.23 C156.57,140.32 156.69,140.40 156.81,140.48 L 156.79 140.47 C155.87,140.12 155.34,138.69 155.40,136.70 C155.47,134.39 154.83,132.69 153.24,131.30 C154.81,132.66 155.48,134.32 155.44,136.50 C155.40,138.15 155.85,139.83 156.44,140.23 ZM 33.89 98.95 L 31.50 98.91 L 32.26 98.58 ZM 70.44 129.13 C70.93,131.56 71.04,133.79 70.77,136.22 C70.91,134.66 70.88,133.14 70.71,131.46 C70.62,130.59 70.53,129.82 70.44,129.13 ZM 64.36 87.50 C64.94,87.07 65.72,86.61 66.75,86.07 C66.96,85.96 67.17,85.84 67.37,85.74 C67.38,85.73 67.40,85.72 67.41,85.71 C66.17,86.51 65.02,87.23 64.39,87.60 C64.20,87.71 64.03,87.82 63.87,87.93 C64.01,87.79 64.17,87.64 64.36,87.50 ZM 136.52 89.45 C136.11,89.53 135.89,89.65 135.88,89.80 C134.81,89.03 134.89,88.94 136.25,89.37 C136.34,89.40 136.43,89.43 136.52,89.45 ZM 146.20 98.44 C146.69,98.32 147.00,98.69 147.00,99.44 C147.00,99.59 146.98,99.73 146.95,99.86 C146.89,99.43 146.62,98.92 146.20,98.44 ZM 129.32 101.28 C127.73,101.54 126.62,101.15 126.05,100.12 C126.51,100.95 127.96,101.32 129.32,101.28 ZM 67.34 104.62 C68.21,104.96 68.89,105.53 68.99,106.01 C68.76,105.86 68.53,105.67 68.31,105.45 C68.00,105.14 67.66,104.86 67.34,104.62 ZM 136.72 94.08 C134.81,94.51 133.08,94.55 133.00,93.91 C133.08,94.32 134.72,94.40 136.72,94.08 ZM 79.60 102.55 C82.06,102.86 83.48,102.42 83.23,101.19 C83.20,101.05 83.19,100.93 83.21,100.83 C83.20,100.93 83.20,101.04 83.23,101.16 C83.51,102.50 82.19,102.95 79.60,102.55 ZM 156.55 130.79 C155.91,128.63 155.53,126.78 155.57,126.06 C155.62,126.27 155.66,126.51 155.68,126.75 C155.71,127.36 156.06,128.92 156.55,130.79 ZM 50.64 134.57 C50.74,134.78 50.85,134.99 50.97,135.21 C51.28,135.77 51.60,136.47 51.93,137.24 C51.72,136.79 51.51,136.40 51.32,136.11 C51.11,135.78 50.87,135.25 50.64,134.57 ZM 154.69 76.42 C154.48,74.35 153.41,72.07 151.73,70.77 C151.63,70.69 151.52,70.62 151.42,70.54 C151.44,70.55 151.46,70.56 151.47,70.57 C153.29,71.77 154.48,74.14 154.69,76.42 ZM 142.30 19.41 C142.10,19.49 141.90,19.54 141.73,19.57 C141.03,19.67 138.74,20.91 136.66,22.32 C138.74,20.91 140.91,19.69 141.47,19.60 C141.66,19.57 141.92,19.49 142.20,19.39 C142.24,19.40 142.27,19.40 142.30,19.41 ZM 35.22 109.01 C37.20,108.64 37.69,108.18 37.12,107.19 C37.69,108.17 37.21,108.64 35.28,109.00 C33.81,109.28 32.75,109.95 32.91,110.50 C33.05,110.98 33.56,111.26 34.11,111.19 C33.55,111.26 33.02,110.99 32.85,110.51 C32.66,109.97 33.73,109.29 35.22,109.01 ZM 145.57 69.57 C145.18,69.58 144.78,69.77 144.32,70.15 C144.21,70.24 144.09,70.33 143.98,70.41 C144.04,70.35 144.11,70.29 144.18,70.22 C144.68,69.72 145.10,69.50 145.57,69.57 ZM 152.89 12.71 C153.65,12.46 153.12,13.13 151.25,14.77 C152.87,13.34 153.46,12.58 152.89,12.71 ZM 39.05 103.66 C38.66,103.73 38.34,103.71 38.15,103.59 C38.08,103.55 38.01,103.51 37.94,103.49 C38.08,103.50 38.22,103.53 38.36,103.59 C38.56,103.66 38.80,103.68 39.05,103.66 ZM 36.69 104.48 C36.48,105.24 36.56,106.27 37.06,107.09 C36.51,106.21 36.44,105.21 36.69,104.48 ZM 64.86 95.13 C64.92,95.48 64.96,95.81 64.98,96.12 C64.95,95.92 64.90,95.69 64.84,95.42 C64.85,95.33 64.86,95.23 64.86,95.13 ZM 131.69 99.46 C131.27,99.18 130.47,99.00 129.56,99.00 C130.64,99.00 131.35,99.19 131.69,99.46 ZM 46.40 80.27 C46.35,80.28 46.30,80.30 46.25,80.34 C45.84,80.59 44.96,80.21 44.30,79.49 C44.96,80.21 45.86,80.57 46.30,80.30 C46.34,80.28 46.37,80.27 46.40,80.27 ZM 102.86 90.62 C102.85,90.62 102.84,90.62 102.83,90.62 C101.06,90.58 101.13,89.29 103.15,87.83 C101.12,89.30 101.09,90.59 102.86,90.62 ZM 92.07 66.26 C92.61,63.88 93.10,61.41 93.21,60.25 C93.09,61.48 92.61,63.90 92.07,66.26 ZM 57.55 146.22 C57.46,146.13 57.42,146.00 57.41,145.84 C57.43,145.88 57.45,145.92 57.48,145.96 C57.53,146.05 57.56,146.14 57.57,146.23 C57.56,146.23 57.56,146.22 57.55,146.22 ZM 147.35 69.53 C147.33,69.18 147.58,69.02 148.04,69.05 C147.62,69.05 147.37,69.20 147.35,69.53 ZM 144.80 101.47 C144.29,102.06 143.82,103.14 143.58,104.43 C143.83,103.09 144.28,102.04 144.80,101.47 ZM 64.06 92.12 C64.02,92.04 63.98,91.96 63.94,91.88 C63.91,91.78 63.88,91.68 63.86,91.59 C63.93,91.76 64.00,91.94 64.07,92.13 ZM 94.43 73.42 C94.87,73.80 95.66,74.01 96.75,74.02 C95.64,74.01 94.86,73.81 94.43,73.42 ZM 133.00 93.87 L 133.00 93.86 C133.00,93.45 133.84,92.66 134.92,92.05 C133.85,92.66 133.01,93.45 133.00,93.87 ZM 83.32 100.55 C83.62,100.16 84.50,100.12 86.11,100.37 C84.51,100.12 83.62,100.16 83.32,100.55 ZM 56.62 147.31 C56.61,147.32 56.60,147.32 56.60,147.33 C56.38,147.41 56.17,147.41 55.98,147.34 C56.18,147.41 56.39,147.40 56.62,147.31 ZM 147.65 70.87 C147.76,70.94 147.84,70.98 147.89,70.99 C147.86,71.01 147.78,70.97 147.65,70.87 ZM 47.59 153.67 C47.61,153.60 47.63,153.53 47.66,153.45 C47.66,153.44 47.67,153.43 47.67,153.42 C47.64,153.51 47.61,153.59 47.59,153.67 Z" fill="rgb(38,25,65)"/>
<path d="M 0.16 184.00 C0.16,182.62 0.38,182.06 0.66,182.75 C0.94,183.44 0.94,184.56 0.66,185.25 C0.38,185.94 0.16,185.38 0.16,184.00 ZM 77.37 174.25 C77.63,172.19 78.16,168.81 78.55,166.75 C79.03,164.21 78.90,163.00 78.13,163.00 C77.51,163.00 77.00,162.50 77.00,161.89 C77.00,161.28 77.68,161.05 78.50,161.36 C79.32,161.68 80.00,161.43 80.00,160.80 C80.00,160.18 80.27,159.94 80.60,160.27 C81.47,161.14 78.75,178.00 77.74,178.00 C77.28,178.00 77.11,176.31 77.37,174.25 ZM 71.16 163.06 C69.00,159.24 66.62,157.50 64.94,158.53 C64.46,158.83 64.69,157.15 65.46,154.79 C66.22,152.43 67.79,147.57 68.93,144.00 C71.41,136.28 71.53,132.02 69.46,125.41 C67.52,119.23 65.15,104.00 66.13,104.00 C66.53,104.00 67.51,104.65 68.31,105.45 C69.11,106.25 70.04,106.63 70.38,106.29 C70.72,105.95 71.00,106.19 71.00,106.83 C71.00,107.47 71.65,108.00 72.43,108.00 C73.22,108.00 75.03,108.44 76.45,108.98 L 79.04 109.96 L 77.02 111.98 C75.91,113.09 74.50,114.00 73.88,114.00 C73.16,114.00 73.01,114.97 73.47,116.75 C73.85,118.26 74.30,120.74 74.46,122.25 C74.62,123.76 74.86,125.11 74.99,125.25 C75.13,125.39 75.35,127.16 75.50,129.20 C75.64,131.23 77.39,135.86 79.38,139.48 C83.54,147.06 83.53,147.00 81.38,147.00 C80.02,147.00 79.87,147.82 80.41,152.25 C81.03,157.33 80.95,157.56 78.03,159.20 C75.93,160.39 75.00,161.67 75.00,163.39 C75.00,167.36 73.50,167.23 71.16,163.06 ZM 79.00 151.93 C79.00,151.35 78.48,149.90 77.84,148.71 C76.71,146.60 76.67,146.59 75.98,148.52 C75.59,149.61 75.49,151.06 75.75,151.75 C76.32,153.27 79.00,153.42 79.00,151.93 ZM 54.50 156.00 C54.16,155.45 54.13,154.60 54.44,154.10 C54.74,153.61 54.33,152.96 53.53,152.65 C52.72,152.34 51.83,152.46 51.55,152.92 C51.26,153.38 50.16,153.99 49.09,154.27 C47.73,154.62 47.31,154.36 47.68,153.39 C47.97,152.62 48.62,152.00 49.11,152.00 C50.66,152.00 50.10,144.33 48.45,142.96 C47.52,142.19 47.30,141.43 47.90,141.06 C49.77,139.90 47.30,137.86 43.68,137.57 C41.69,137.41 40.25,137.59 40.48,137.97 C40.72,138.36 40.33,138.67 39.61,138.67 C38.82,138.67 38.34,137.55 38.40,135.84 C38.46,134.28 38.79,133.00 39.13,133.00 C40.25,133.00 40.87,128.96 40.29,125.40 C39.75,122.09 39.64,122.01 37.86,123.62 C36.84,124.55 36.00,124.82 36.00,124.21 C36.00,123.61 36.45,122.84 37.00,122.50 C39.27,121.10 37.77,120.25 34.75,121.23 C26.50,123.89 26.90,123.46 28.53,128.09 C30.28,133.03 30.27,133.00 29.00,133.00 C28.45,133.00 28.00,132.27 28.00,131.38 C28.00,130.12 27.70,130.01 26.63,130.89 C25.87,131.52 24.52,131.75 23.63,131.41 C22.70,131.05 22.00,131.29 22.00,131.95 C22.00,132.59 21.49,132.80 20.87,132.42 C20.19,132.00 19.92,132.27 20.20,133.11 C20.45,133.87 21.66,134.65 22.89,134.83 C24.64,135.09 24.88,135.44 23.99,136.52 C22.67,138.10 20.00,137.40 20.00,135.46 C20.00,134.74 19.29,133.44 18.43,132.57 C17.52,131.66 17.33,131.00 17.99,131.00 C18.61,131.00 18.86,130.59 18.55,130.08 C18.24,129.57 18.59,128.55 19.34,127.80 C20.46,126.68 20.47,126.23 19.39,125.22 C17.28,123.25 15.39,123.79 12.31,127.25 C10.72,129.04 8.76,130.56 7.96,130.64 C7.16,130.72 5.68,131.11 4.68,131.52 C2.96,132.23 2.94,132.07 4.38,128.63 C5.21,126.64 5.47,125.00 4.95,125.00 C4.43,125.00 4.00,124.52 4.00,123.94 C4.00,123.36 4.45,123.16 5.00,123.50 C7.12,124.81 5.86,122.19 3.03,119.42 C0.76,117.20 0.05,115.58 0.03,112.63 C0.00,108.86 0.05,108.80 2.25,110.22 C5.74,112.47 8.49,112.85 10.52,111.36 C11.54,110.61 13.08,110.01 13.94,110.03 C15.04,110.05 14.69,110.78 12.75,112.48 C8.00,116.67 9.33,119.74 14.88,117.41 C17.44,116.33 17.99,115.69 17.18,114.71 C16.50,113.90 16.45,112.90 17.04,111.97 C17.82,110.73 17.97,110.77 17.98,112.22 C17.99,113.33 18.53,113.73 19.49,113.36 C20.32,113.05 20.75,112.41 20.47,111.95 C20.18,111.48 20.94,111.30 22.15,111.53 C23.55,111.80 24.84,111.24 25.73,109.98 C27.22,107.84 29.00,107.35 29.00,109.06 C29.00,109.64 28.57,109.85 28.04,109.52 C27.49,109.18 27.17,110.22 27.29,111.95 C27.40,113.61 28.09,115.20 28.80,115.48 C29.63,115.79 29.83,115.53 29.36,114.74 C28.83,113.86 29.09,113.89 30.25,114.82 C31.15,115.55 32.70,116.03 33.69,115.88 C37.04,115.39 39.98,117.07 40.59,119.82 C41.67,124.73 42.02,124.56 41.57,119.34 C41.21,115.26 41.45,114.04 42.70,113.56 C43.57,113.23 44.03,112.69 43.71,112.37 C43.39,112.06 43.53,110.75 44.01,109.46 C44.75,107.54 44.59,107.16 43.09,107.27 C42.10,107.34 41.34,108.04 41.39,108.81 C41.46,109.67 40.34,110.32 38.50,110.50 C36.85,110.65 34.98,110.94 34.35,111.14 C33.72,111.34 33.07,111.05 32.91,110.50 C32.75,109.95 33.81,109.28 35.28,109.00 C37.27,108.63 37.72,108.14 37.06,107.09 C36.01,105.40 36.82,102.77 38.15,103.59 C38.67,103.91 40.11,103.50 41.36,102.68 C43.48,101.30 43.89,101.41 47.41,104.37 L 51.19 107.54 L 49.55 113.17 C48.24,117.70 48.10,120.25 48.84,126.26 C49.35,130.36 50.47,134.80 51.32,136.11 C52.17,137.42 53.39,140.61 54.04,143.18 C54.86,146.49 55.61,147.70 56.60,147.33 C57.36,147.03 57.76,146.42 57.48,145.96 C57.20,145.51 57.42,144.86 57.98,144.51 C58.54,144.16 59.06,142.67 59.14,141.19 C59.26,138.69 59.30,138.67 59.72,140.85 C60.25,143.66 57.14,157.00 55.95,157.00 C55.49,157.00 54.84,156.55 54.50,156.00 ZM 27.00 147.42 C27.00,145.65 29.15,145.96 29.77,147.81 C29.99,148.47 29.45,149.00 28.58,149.00 C27.71,149.00 27.00,148.29 27.00,147.42 ZM 42.00 140.06 C42.00,139.54 42.44,138.84 42.99,138.51 C43.56,138.16 43.72,138.56 43.38,139.45 C42.72,141.18 42.00,141.50 42.00,140.06 ZM 156.44 140.23 C155.85,139.83 155.40,138.15 155.44,136.50 C155.51,133.00 153.74,130.84 149.35,129.09 C147.62,128.40 145.14,126.68 143.85,125.26 C142.56,123.84 142.18,123.04 143.00,123.49 C144.17,124.12 144.24,124.02 143.34,123.03 C141.80,121.37 139.93,122.60 140.68,124.78 C141.00,125.73 139.84,124.99 138.10,123.15 C136.15,121.09 134.36,120.03 133.42,120.39 C132.55,120.73 132.16,120.55 132.51,119.99 C132.84,119.44 132.69,119.00 132.16,119.00 C131.63,119.00 129.02,116.78 126.37,114.07 C123.53,111.17 121.27,109.57 120.88,110.19 C119.35,112.66 118.00,109.49 118.00,103.44 C118.00,99.90 117.74,97.00 117.43,97.00 C116.13,97.00 114.37,99.62 114.75,101.01 C115.10,102.32 115.02,102.32 114.08,101.00 C113.47,100.15 113.26,97.72 113.59,95.39 C114.05,92.19 113.84,91.15 112.59,90.67 C111.72,90.34 111.00,89.34 111.00,88.45 C111.00,86.03 108.64,87.29 107.98,90.06 C107.62,91.61 107.15,92.05 106.69,91.30 C106.29,90.65 105.08,90.29 104.00,90.50 C101.00,91.08 100.72,89.41 103.51,87.59 C105.23,86.46 106.00,85.04 106.00,83.00 C106.00,81.38 106.90,78.57 108.00,76.77 C110.56,72.58 110.58,71.09 108.03,74.14 C106.95,75.44 106.05,75.97 106.03,75.32 C106.01,74.67 107.12,73.26 108.50,72.18 C111.08,70.15 111.97,68.31 109.75,69.61 C109.06,70.01 109.29,69.44 110.25,68.34 C111.21,67.24 111.99,65.93 111.98,65.42 C111.98,64.91 111.53,65.18 111.00,66.00 C110.41,66.92 110.02,67.03 110.02,66.30 C110.01,65.64 110.79,64.64 111.75,64.08 C112.71,63.52 113.28,63.01 113.00,62.95 C112.72,62.89 111.15,62.62 109.50,62.36 C107.09,61.97 106.75,62.12 107.75,63.14 C109.59,65.00 109.27,67.70 107.02,69.27 C104.34,71.15 100.01,77.66 100.84,78.58 C101.20,78.99 100.93,78.99 100.23,78.59 C99.54,78.19 99.23,77.44 99.54,76.93 C99.86,76.42 99.30,75.99 98.31,75.98 C96.78,75.97 96.73,75.82 98.00,75.00 C99.17,74.24 98.89,74.03 96.75,74.02 C94.98,74.01 94.00,73.47 94.00,72.50 C94.00,70.67 92.86,70.58 91.05,72.25 C90.14,73.10 89.92,73.12 90.37,72.32 C91.00,71.19 92.95,62.92 93.21,60.25 C93.28,59.56 93.82,58.99 94.42,58.98 C95.01,58.98 94.90,58.59 94.17,58.12 C93.10,57.45 93.16,57.15 94.48,56.65 C95.39,56.30 95.85,55.56 95.50,55.01 C95.16,54.45 95.61,54.00 96.51,54.00 C97.76,54.00 97.95,53.49 97.34,51.75 C96.04,48.06 96.31,38.46 97.71,38.74 C98.42,38.88 98.69,38.35 98.36,37.49 C98.04,36.67 98.28,36.00 98.89,36.00 C99.50,36.00 100.00,36.89 100.00,37.97 C100.00,41.12 102.47,39.38 105.36,34.19 C106.80,31.61 109.20,28.62 110.71,27.54 L 113.44 25.58 L 111.13 28.82 C109.69,30.84 109.32,31.95 110.16,31.78 C110.90,31.63 111.83,31.05 112.23,30.50 C112.69,29.88 112.98,29.98 112.98,30.75 C112.99,31.44 113.75,32.00 114.67,32.00 C115.58,32.00 116.04,31.70 115.67,31.34 C114.88,30.55 122.87,26.80 123.94,27.46 C124.34,27.71 126.33,27.40 128.36,26.78 C131.01,25.97 131.69,25.39 130.78,24.73 C129.86,24.07 129.97,23.96 131.19,24.35 C132.12,24.65 134.58,23.74 136.66,22.32 C138.74,20.91 141.03,19.67 141.73,19.57 C142.44,19.46 143.56,18.84 144.21,18.19 C144.86,17.54 145.93,17.00 146.58,17.00 C147.23,17.00 148.34,16.30 149.05,15.45 C149.75,14.59 151.27,13.44 152.42,12.90 C153.66,12.31 153.18,13.07 151.25,14.77 C148.07,17.58 146.51,20.48 149.52,17.98 C150.81,16.91 150.94,17.00 150.35,18.53 C149.79,19.98 150.01,20.21 151.45,19.66 C153.11,19.02 153.13,19.15 151.78,21.23 C150.98,22.48 150.00,24.85 149.61,26.50 C149.22,28.15 148.65,30.40 148.33,31.50 C147.80,33.35 147.94,33.32 150.27,31.17 C151.88,29.69 153.03,29.24 153.45,29.92 C154.46,31.55 156.44,31.22 159.00,29.00 C160.65,27.57 161.65,27.30 162.55,28.04 C163.45,28.79 165.60,28.08 170.23,25.54 C173.77,23.59 176.97,22.30 177.33,22.67 C177.70,23.03 178.00,22.78 178.00,22.11 C178.00,21.43 178.45,21.16 179.00,21.50 C179.55,21.84 180.01,21.53 180.02,20.81 C180.03,19.75 180.19,19.75 180.88,20.83 C181.58,21.94 182.47,21.91 186.11,20.68 C191.29,18.93 192.00,19.20 192.00,22.90 C192.00,25.31 191.42,25.86 187.75,26.97 C184.14,28.07 183.80,28.38 185.50,29.06 C187.23,29.75 187.12,29.87 184.69,29.93 C182.81,29.98 182.12,29.62 182.59,28.85 C184.31,26.07 166.14,31.08 163.36,34.15 C161.02,36.74 162.22,37.44 166.96,36.24 C169.17,35.68 170.74,35.62 170.43,36.11 C170.13,36.60 169.18,37.00 168.33,37.00 C167.19,37.00 166.94,37.64 167.39,39.42 C167.77,40.91 167.52,42.03 166.75,42.34 C165.80,42.73 165.84,43.09 166.94,43.85 C168.06,44.63 167.63,45.06 164.94,45.83 L 161.50 46.82 L 164.81 46.91 C167.18,46.97 167.90,47.36 167.37,48.25 C166.80,49.19 167.02,49.17 168.22,48.20 C169.45,47.20 169.99,47.18 170.57,48.11 C171.04,48.87 170.89,49.05 170.15,48.60 C169.52,48.20 169.00,48.35 169.00,48.93 C169.00,49.60 171.10,49.75 175.00,49.34 C179.35,48.89 181.00,49.05 181.00,49.92 C181.00,50.58 180.55,50.84 180.00,50.50 C179.45,50.16 179.00,50.39 179.00,51.01 C179.00,51.81 175.91,51.99 168.37,51.61 C156.59,51.03 151.99,52.27 152.27,55.95 C152.35,57.03 152.62,57.71 152.87,57.47 C153.11,57.22 153.92,57.52 154.66,58.13 C155.67,58.97 156.00,58.91 156.02,57.87 C156.03,56.73 156.17,56.72 156.89,57.85 C157.36,58.59 159.38,59.20 161.37,59.20 C163.37,59.20 165.26,59.60 165.56,60.10 C165.87,60.60 167.10,61.01 168.31,61.02 C169.82,61.03 170.10,61.28 169.22,61.85 C168.25,62.46 168.59,63.32 170.62,65.35 C172.09,66.82 173.01,68.32 172.65,68.68 C172.29,69.04 172.00,68.91 172.00,68.39 C172.00,67.88 170.43,66.61 168.50,65.57 C166.57,64.53 165.00,63.28 165.00,62.79 C165.00,62.29 163.54,62.07 161.75,62.30 C159.96,62.52 157.60,62.26 156.50,61.71 C154.54,60.73 154.54,60.76 156.34,62.79 C157.36,63.93 158.82,64.62 159.59,64.33 C160.37,64.03 161.00,64.28 161.00,64.89 C161.00,66.36 169.01,72.11 170.11,71.43 C170.59,71.14 170.68,71.66 170.33,72.59 C169.92,73.65 170.35,74.78 171.46,75.59 C173.10,76.79 173.04,76.88 170.79,76.70 C169.24,76.57 166.16,74.21 162.39,70.25 C156.53,64.09 153.42,62.27 154.71,65.75 C155.06,66.71 155.64,67.72 156.00,68.00 C156.35,68.28 158.41,70.50 160.57,72.93 C163.40,76.13 163.94,77.18 162.50,76.68 C160.75,76.08 160.70,76.15 162.10,77.25 C164.92,79.46 162.86,81.91 157.87,82.28 C156.68,82.37 156.27,83.29 156.38,85.62 C156.46,87.38 156.18,88.61 155.76,88.35 C155.34,88.09 154.95,88.47 154.89,89.19 C154.83,89.91 154.39,88.53 153.92,86.13 C153.38,83.35 153.44,81.05 154.10,79.82 C155.58,77.04 154.27,72.41 151.47,70.57 C148.59,68.68 146.59,68.52 147.63,70.25 C148.23,71.24 148.07,71.25 146.87,70.27 C145.71,69.33 145.08,69.32 144.18,70.22 C143.53,70.87 143.00,71.08 143.00,70.70 C143.00,70.32 142.21,70.79 141.25,71.76 C139.21,73.82 136.55,79.09 136.88,80.41 C137.62,83.36 129.20,94.86 127.53,93.19 C126.55,92.22 126.99,91.00 128.23,91.25 C128.90,91.39 129.61,90.45 129.81,89.17 C130.14,86.98 130.05,86.94 128.33,88.47 C127.32,89.37 125.42,90.90 124.11,91.88 C122.04,93.41 121.85,94.04 122.69,96.57 C123.23,98.18 124.00,99.28 124.40,99.00 C124.81,98.72 125.55,99.23 126.05,100.12 C126.64,101.18 127.81,101.57 129.47,101.25 C132.70,100.63 132.77,99.00 129.56,99.00 C127.28,99.00 125.25,97.42 126.25,96.42 C126.49,96.18 129.41,95.74 132.72,95.45 C137.61,95.02 138.87,95.21 139.35,96.48 C139.85,97.77 139.60,97.86 137.98,96.99 C135.63,95.73 135.43,96.28 137.48,98.34 C139.37,100.23 143.57,99.39 141.96,97.45 C141.08,96.40 141.43,96.29 143.68,96.89 C146.63,97.68 148.24,101.00 145.68,101.00 C144.81,101.00 143.96,102.38 143.58,104.43 C143.23,106.31 142.43,108.02 141.80,108.23 C140.26,108.75 140.36,114.53 141.96,116.45 C143.25,118.01 146.54,118.69 145.62,117.20 C145.35,116.76 145.55,115.75 146.05,114.95 C146.85,113.69 146.97,113.70 147.00,115.00 C147.03,116.29 147.16,116.30 147.94,115.06 C148.63,113.97 149.48,115.02 151.37,119.31 C152.76,122.44 154.39,125.00 155.00,125.00 C155.62,125.00 155.90,125.36 155.63,125.80 C155.36,126.23 156.00,129.23 157.07,132.45 C159.70,140.44 159.55,142.39 156.44,140.23 ZM 139.00 70.44 C139.00,68.98 138.42,68.00 137.55,68.00 C136.75,68.00 135.74,67.44 135.30,66.75 C134.86,66.06 133.55,64.97 132.39,64.33 C130.67,63.37 129.94,63.47 128.50,64.83 C127.52,65.75 127.03,65.94 127.42,65.25 C127.80,64.56 127.59,64.00 126.95,64.00 C126.31,64.00 126.00,63.44 126.27,62.74 C126.53,62.05 126.23,61.04 125.59,60.49 C123.96,59.11 121.72,58.73 122.48,59.98 C122.83,60.54 122.64,61.00 122.06,61.00 C121.48,61.00 121.01,62.24 121.02,63.75 C121.03,65.89 121.24,66.17 122.00,65.00 C122.53,64.18 123.03,63.84 123.11,64.25 C123.19,64.66 123.31,65.37 123.38,65.82 C123.59,67.22 126.42,69.54 128.00,69.61 C130.89,69.72 134.93,71.21 136.07,72.59 C137.62,74.45 139.00,73.44 139.00,70.44 ZM 130.00 61.50 C130.00,60.74 129.55,59.84 129.00,59.50 C128.43,59.15 128.00,60.01 128.00,61.50 C128.00,62.99 128.43,63.85 129.00,63.50 C129.55,63.16 130.00,62.26 130.00,61.50 ZM 135.23 27.59 C136.42,25.84 136.11,25.02 134.51,25.64 C133.68,25.95 133.27,26.63 133.59,27.14 C133.92,27.69 132.97,27.85 131.33,27.53 C129.78,27.23 129.07,27.25 129.76,27.58 C130.45,27.90 130.78,28.54 130.50,28.99 C129.74,30.23 134.38,28.85 135.23,27.59 ZM 11.00 133.00 C11.00,132.45 11.45,132.00 12.00,132.00 C12.55,132.00 13.00,132.45 13.00,133.00 C13.00,133.55 12.55,134.00 12.00,134.00 C11.45,134.00 11.00,133.55 11.00,133.00 ZM 160.00 114.88 C160.00,113.66 162.43,112.74 164.54,113.17 C165.66,113.39 165.19,113.88 163.10,114.66 C161.31,115.34 160.00,115.43 160.00,114.88 ZM 0.72 106.67 C-0.50,103.56 -0.11,103.00 3.25,103.07 C6.27,103.13 6.35,103.21 4.30,104.20 C3.09,104.78 1.95,105.99 1.77,106.88 C1.49,108.27 1.34,108.24 0.72,106.67 ZM 3.75 102.27 C0.55,101.94 0.00,101.52 0.00,99.44 C0.00,97.12 0.30,97.00 6.03,97.00 L 12.06 97.00 L 9.84 100.00 C8.62,101.65 7.60,102.92 7.56,102.83 C7.53,102.74 5.81,102.49 3.75,102.27 ZM 72.50 100.56 C69.20,99.26 66.16,98.41 65.75,98.66 C65.34,98.91 65.00,97.99 65.00,96.61 C65.00,95.22 64.45,92.88 63.77,91.39 C62.70,89.05 62.78,88.55 64.39,87.60 C65.41,86.99 67.83,85.46 69.76,84.19 C72.82,82.17 73.65,82.03 76.14,83.06 C77.71,83.71 79.00,84.62 79.00,85.09 C79.00,85.56 79.79,85.70 80.75,85.40 C81.71,85.10 81.42,85.51 80.10,86.30 C78.33,87.36 78.07,87.88 79.10,88.29 C80.12,88.69 80.02,88.86 78.75,88.92 C76.75,89.01 76.37,91.58 78.25,92.34 C78.95,92.62 78.68,92.88 77.63,92.92 C74.58,93.05 77.44,95.63 82.83,97.61 C88.73,99.78 90.20,101.01 86.11,100.37 C83.85,100.01 83.03,100.24 83.23,101.19 C83.68,103.35 78.93,103.07 72.50,100.56 ZM 34.50 99.09 L 31.50 98.41 L 34.30 97.68 C37.20,96.91 39.00,97.44 39.00,99.06 C39.00,100.08 38.92,100.08 34.50,99.09 ZM 133.00 93.88 C133.00,93.43 133.96,92.56 135.14,91.93 C136.59,91.15 136.90,90.55 136.10,90.06 C135.45,89.66 136.31,89.33 138.01,89.33 C140.56,89.33 141.04,89.69 140.80,91.40 C140.58,92.94 139.53,93.63 136.75,94.08 C134.69,94.41 133.00,94.32 133.00,93.88 ZM -0.00 79.50 C-0.00,67.79 0.14,66.84 1.75,67.50 C6.53,69.44 8.58,69.67 9.76,68.41 C10.74,67.36 10.64,66.89 9.25,66.08 C7.69,65.17 7.74,65.06 9.75,65.03 C10.99,65.01 12.00,64.61 12.00,64.13 C12.00,63.65 14.02,62.69 16.50,62.00 C19.24,61.23 21.00,60.16 21.00,59.26 C21.00,57.52 24.03,57.89 30.91,60.46 C34.87,61.93 35.48,61.94 36.85,60.58 C37.69,59.73 38.18,58.91 37.94,58.74 C37.70,58.56 33.79,57.69 29.25,56.79 C20.40,55.03 9.50,50.61 10.41,49.15 C10.71,48.66 13.87,49.06 17.47,50.06 L 23.98 51.87 L 25.49 49.71 C26.32,48.53 27.00,47.09 27.00,46.53 C27.00,45.16 32.76,44.80 33.57,46.11 C33.92,46.67 33.59,47.05 32.85,46.95 C29.91,46.54 29.00,47.10 29.07,49.25 C29.14,51.40 29.18,51.41 30.00,49.50 C30.84,47.55 30.86,47.55 30.93,49.63 C30.97,50.80 31.70,52.33 32.55,53.04 C33.72,54.01 33.80,54.51 32.87,55.08 C32.20,55.50 34.54,55.76 38.07,55.67 C43.92,55.52 44.53,55.30 44.82,53.25 C45.00,52.01 45.63,51.00 46.24,51.00 C46.84,51.00 47.03,51.30 46.66,51.67 C45.51,52.83 49.03,55.81 50.96,55.30 C52.36,54.93 52.96,55.53 53.46,57.81 C54.11,60.79 55.35,61.35 63.20,62.24 C64.14,62.34 64.71,62.63 64.46,62.87 C63.57,63.77 66.19,65.86 67.55,65.34 C68.65,64.92 68.88,65.69 68.62,68.88 C68.42,71.12 68.66,72.71 69.13,72.42 C69.61,72.12 70.00,72.42 70.00,73.08 C70.00,74.28 61.10,82.94 59.82,82.98 C59.44,82.99 58.85,82.10 58.50,81.00 C58.10,79.74 56.99,79.00 55.50,79.00 C54.21,79.00 52.55,78.43 51.82,77.73 C50.37,76.33 49.79,76.30 45.80,77.43 C43.65,78.04 43.34,78.46 44.30,79.49 C44.96,80.21 45.84,80.59 46.25,80.34 C47.24,79.74 47.19,82.16 46.18,83.75 C45.33,85.09 35.08,87.39 31.08,87.15 C29.75,87.06 27.95,87.62 27.08,88.38 C26.10,89.24 24.25,89.58 22.22,89.27 C19.39,88.83 19.11,88.55 20.18,87.13 C21.21,85.76 21.18,85.70 20.00,86.75 C19.23,87.44 17.09,88.00 15.24,88.00 C13.39,88.00 12.13,88.41 12.44,88.90 C12.75,89.40 10.86,90.00 8.25,90.23 C5.64,90.46 2.71,91.00 1.75,91.43 C0.13,92.15 -0.00,91.24 -0.00,79.50 ZM 12.00 86.00 C14.03,85.35 13.59,85.18 9.69,85.10 C6.72,85.04 5.12,85.38 5.50,86.00 C6.21,87.15 8.41,87.15 12.00,86.00 ZM 36.57 83.11 C36.27,82.63 37.01,81.97 38.22,81.65 C41.59,80.77 39.57,79.72 36.01,80.50 C33.10,81.14 33.00,81.29 34.69,82.56 C36.82,84.18 37.32,84.33 36.57,83.11 ZM 172.16 88.40 C170.97,87.57 170.00,86.47 170.00,85.95 C170.00,85.44 168.74,83.78 167.21,82.26 C164.42,79.51 163.61,77.00 165.50,77.00 C166.05,77.00 166.54,77.34 166.59,77.75 C166.78,79.45 168.46,82.46 170.15,84.15 C171.89,85.89 171.99,85.88 173.01,83.98 C173.77,82.55 173.74,81.37 172.87,79.75 C171.78,77.69 171.82,77.62 173.37,78.90 C174.70,80.00 174.96,81.33 174.53,84.90 C174.14,88.19 174.25,88.93 174.92,87.50 C175.70,85.85 175.87,85.80 175.93,87.19 C176.03,89.67 174.62,90.12 172.16,88.40 ZM 159.50 55.00 C157.73,54.24 157.81,54.13 160.25,54.07 C161.76,54.03 163.00,54.45 163.00,55.00 C163.00,56.17 162.23,56.17 159.50,55.00 ZM 90.31 49.75 C89.18,48.51 87.95,46.15 87.58,44.50 C86.90,41.52 86.91,41.53 89.48,45.25 C91.08,47.56 92.87,49.00 94.16,49.00 C95.90,49.00 96.04,49.25 95.00,50.50 C93.34,52.50 92.71,52.40 90.31,49.75 ZM 94.00 50.61 C94.00,50.39 93.30,49.95 92.45,49.62 C91.56,49.28 91.16,49.44 91.51,50.01 C92.09,50.96 94.00,51.42 94.00,50.61 Z" fill="rgb(181,212,212)"/>
</g>
</svg>